<svg xmlns="http://www.w3.org/2000/svg" xmlns:xlink="http://www.w3.org/1999/xlink"><defs><symbol viewBox="0 0 20 32" id="arrow-left"><path fill="#4D4D4D" d="m9.038 16 9.573-9.573a3.693 3.693 0 0 0-5.222-5.222l-12.01 12.01a3.939 3.939 0 0 0 0 5.57l12.01 12.01a3.693 3.693 0 0 0 5.222-5.222L9.038 16z"/></symbol><symbol viewBox="0 0 10 18" id="arrow-left-thin"><path d="M9.692.31a1.048 1.048 0 0 0-1.489 0L.308 8.251a1.061 1.061 0 0 0 0 1.497l7.895 7.941c.41.414 1.077.415 1.488.001a1.065 1.065 0 0 0 0-1.498L2.542 9l7.15-7.193a1.061 1.061 0 0 0 0-1.497Z"/></symbol><symbol viewBox="0 0 10 18" id="arrow-right-thin"><path d="M.308.31a1.048 1.048 0 0 1 1.489 0l7.895 7.941a1.061 1.061 0 0 1 0 1.497L1.797 17.69a1.047 1.047 0 0 1-1.488.001 1.065 1.065 0 0 1 0-1.498L7.458 9 .309 1.807a1.061 1.061 0 0 1 0-1.497Z"/></symbol><symbol viewBox="0 0 32 32" id="check"><path fill="#fff" d="M29.839 10.107q0 .714-.5 1.214L13.982 26.678q-.5.5-1.214.5t-1.214-.5l-8.893-8.893q-.5-.5-.5-1.214t.5-1.214l2.429-2.429q.5-.5 1.214-.5t1.214.5l5.25 5.268L24.482 6.464q.5-.5 1.214-.5t1.214.5l2.429 2.429q.5.5.5 1.214z"/></symbol><symbol viewBox="0 0 22 22" id="check-circle-big"><path d="M11 0c6.075 0 11 4.925 11 11s-4.925 11-11 11S0 17.075 0 11 4.925 0 11 0Zm5.743 6.118c-.46-.282-.74.014-.888.15L9.24 13.337 6.11 11.1c-.2-.135-.477-.405-.888-.069a.608.608 0 0 0-.09.849l3.465 4.797A.792.792 0 0 0 9.24 17c.256 0 .495-.12.642-.324L16.872 7c.188-.248.188-.66-.129-.881Z" fill="#4db85f"/></symbol><symbol viewBox="0 0 32 32" fill="#4D4D4D" id="close"><path d="m1.081 6.303 24.615 24.615a3.693 3.693 0 0 0 5.222-5.222L6.303 1.081a3.693 3.693 0 0 0-5.222 5.222z"/><path d="M25.697 1.081 1.082 25.696a3.693 3.693 0 0 0 5.222 5.222L30.919 6.303a3.693 3.693 0 0 0-5.222-5.222z"/></symbol><symbol viewBox="0 0 28 28" id="dismiss-large"><path d="M22.41 5.44a1.5 1.5 0 0 1 0 2.12l-6.365 6.364 6.365 6.365a1.5 1.5 0 0 1-2.121 2.12l-6.365-6.364-6.363 6.365a1.5 1.5 0 0 1-2.122-2.121l6.364-6.365-6.364-6.363a1.5 1.5 0 1 1 2.122-2.122l6.363 6.364 6.365-6.364a1.5 1.5 0 0 1 2.12 0Z" fill="#4d4d4d"/></symbol><symbol viewBox="0 0 32 32" id="e-trusted-black"><path d="M0 16C0 7.163 7.163 0 16 0s16 7.163 16 16-7.163 16-16 16S0 24.837 0 16zm16 10.08c5.567 0 10.08-4.513 10.08-10.08S21.567 5.92 16 5.92 5.92 10.433 5.92 16 10.433 26.08 16 26.08zm4.25-6.966c-1.466 2.17-3.52 4.16-6.246 4.16-2.899 0-4.589-1.818-4.589-4.749 0-4.749 3.52-9.402 8.448-9.402 1.658-.016 3.898.653 3.898 2.662 0 3.6-5.642 4.8-8.416 5.514a11.238 11.238 0 0 0-.192 1.802c0 1.258.668 2.406 2.038 2.406 1.786 0 3.219-1.722 4.272-2.995zm-1.53-7.744c0-.733-.413-1.306-1.178-1.306-2.294 0-3.475 4.461-3.92 6.214 2.131-.637 5.098-2.39 5.098-4.909z"/></symbol><symbol viewBox="0 0 32 32" fill="#878787" id="e-trusted-gray"><path d="M0 16C0 7.163 7.163 0 16 0s16 7.163 16 16-7.163 16-16 16S0 24.837 0 16zm16 10.08c5.567 0 10.08-4.513 10.08-10.08S21.567 5.92 16 5.92 5.92 10.433 5.92 16 10.433 26.08 16 26.08zm4.25-6.966c-1.466 2.17-3.52 4.16-6.246 4.16-2.899 0-4.589-1.818-4.589-4.749 0-4.749 3.52-9.402 8.448-9.402 1.658-.016 3.898.653 3.898 2.662 0 3.6-5.642 4.8-8.416 5.514a11.238 11.238 0 0 0-.192 1.802c0 1.258.668 2.406 2.038 2.406 1.786 0 3.219-1.722 4.272-2.995zm-1.53-7.744c0-.733-.413-1.306-1.178-1.306-2.294 0-3.475 4.461-3.92 6.214 2.131-.637 5.098-2.39 5.098-4.909z"/></symbol><symbol viewBox="0 0 18 18" id="external-link-blue"><path d="M17.167 7.075a.832.832 0 0 1-.834-.832V2.849l-6.92 6.91a.828.828 0 1 1-1.169-1.176l6.93-6.917h-3.428a.832.832 0 0 1 0-1.666h5.42A.832.832 0 0 1 18 .833v5.41a.834.834 0 0 1-.833.832ZM7 5.555H2.333a.779.779 0 0 0-.777.778v9.334c0 .429.348.777.777.777h9.334c.43 0 .777-.348.777-.777V11A.778.778 0 0 1 14 11v4.666A2.336 2.336 0 0 1 11.667 18H2.333A2.336 2.336 0 0 1 0 15.667V6.333A2.336 2.336 0 0 1 2.333 4H7a.778.778 0 0 1 0 1.556Z" fill="#005AA0"/></symbol><symbol viewBox="0 0 18 18" id="external-link-white"><path d="M17.167 7.075a.832.832 0 0 1-.834-.832V2.849l-6.92 6.91a.828.828 0 1 1-1.169-1.176l6.93-6.917h-3.428a.832.832 0 0 1 0-1.666h5.42A.832.832 0 0 1 18 .833v5.41a.834.834 0 0 1-.833.832ZM7 5.555H2.333a.779.779 0 0 0-.777.778v9.334c0 .429.348.777.777.777h9.334c.43 0 .777-.348.777-.777V11A.778.778 0 0 1 14 11v4.666A2.336 2.336 0 0 1 11.667 18H2.333A2.336 2.336 0 0 1 0 15.667V6.333A2.336 2.336 0 0 1 2.333 4H7a.778.778 0 0 1 0 1.556Z" fill="#fff"/></symbol><symbol viewBox="0 0 34 40" id="shield-simplified"><defs><path d="M15.85 0c.013 0 1.38.006 2.463 1.442C23.577 7.18 31.121 2.831 31.688 8.76c.363 3.488.466 7.055 0 10.097C31.22 21.898 29.64 34.853 15.85 38 7.52 36.104-1.232 28.813.144 9.467c-.04-6.345 9.094-3.399 12.389-7.08C13.829.97 14.762.13 15.85 0" id="shield-simplified_a"/><path d="M16 12c4.418 0 8 3.713 8 8.294 0 .238-.01.473-.029.706-.345-4.25-3.782-7.588-7.971-7.588s-7.626 3.337-7.971 7.587A8.683 8.683 0 0 1 8 20.294C8 15.714 11.582 12 16 12Z" id="shield-simplified_b"/></defs><g transform="translate(1 1)" fill="none" fill-rule="evenodd"><use stroke="#45413C" fill="#2277BC" stroke-linecap="round" stroke-linejoin="round" xlink:href="#shield-simplified_a"/><path d="M18.16 1.394c1.877 2.126 4.062 2.832 6.08 3.207l.317.056.314.052.31.049 1.197.177.286.045.28.047.273.05c1.889.363 3.267 1.023 3.49 3.45.329 3.284.43 6.639.044 9.536l-.136.94-.058.385-.045.281-.05.3-.056.315-.062.332-.033.172-.072.355-.08.368-.087.382C28.912 26.805 25.726 34.621 16 37V0l.071.01.083.015.094.02.103.028c.47.131 1.189.466 1.81 1.321Z" fill="#005AA0"/><circle fill-opacity=".15" fill="#000" fill-rule="nonzero" cx="15.5" cy="21.5" r="8.5"/><circle stroke="#45413C" fill="#E6E6E6" fill-rule="nonzero" cx="16" cy="20" r="8.5"/><use fill="#FFF" fill-rule="nonzero" xlink:href="#shield-simplified_b"/><path d="m15.98 20.857-4.779-2.506a.837.837 0 0 0-.989.158.753.753 0 0 0-.04 1.003l4.947 6.07c.22.271.561.426.92.418.34-.009.658-.163.867-.42l9.898-12.15a.86.86 0 0 0-.169-1.25.955.955 0 0 0-1.194.063l-9.46 8.614Z" fill-opacity=".15" fill="#000"/><path d="m15.98 18.857-4.779-2.506a.837.837 0 0 0-.989.158.753.753 0 0 0-.04 1.003l4.947 6.07c.22.271.561.426.92.418.34-.009.658-.163.867-.42l9.898-12.15a.86.86 0 0 0-.169-1.25.955.955 0 0 0-1.194.063l-9.46 8.614Z" stroke="#45413C" fill="#FFDC0F"/><path d="M25.01 11.25a.92.92 0 0 1 .99-.177.616.616 0 0 1-.083.16l-.069.082-.449.507-1.37 1.518-5.6 6.156-1.888 2.07a1.128 1.128 0 0 1-1.774.003l-2.554-2.105-1.664-1.383-.549-.462a.808.808 0 0 1 .821-.098l.058.028 4.743 2.585 9.388-8.883Z" fill="#FFEE58"/></g></symbol><symbol viewBox="0 0 34 32" id="star-gray"><path d="m16.997 0-4.013 12.218L0 12.224l10.505 7.552L6.497 32l10.5-7.553L27.505 32l-4.01-12.224L34 12.224l-12.984-.006z" fill="#d3d3d3"/></symbol><symbol viewBox="0 0 34 32" id="star-yellow"><path d="m16.997 0-4.013 12.218L0 12.224l10.505 7.552L6.497 32l10.5-7.553L27.505 32l-4.01-12.224L34 12.224l-12.984-.006z" fill="#FFDC0F"/></symbol><symbol viewBox="0 0 77 32" id="trusted-shops"><path d="M13.201 26.533C5.91 26.533 0 20.623 0 13.332S5.91.131 13.201.131s13.201 5.91 13.201 13.201-5.91 13.201-13.201 13.201zm0-4.87a8.331 8.331 0 1 0 0-16.662 8.331 8.331 0 0 0 0 16.662zm3.497-5.78c-1.21 1.788-2.893 3.418-5.154 3.418-2.393 0-3.787-1.499-3.787-3.918 0-3.918 2.893-7.757 6.968-7.757 1.367 0 3.208.552 3.208 2.209 0 2.971-4.654 3.971-6.942 4.549-.079.5-.158.999-.158 1.499 0 1.026.552 1.972 1.683 1.972 1.473 0 2.656-1.42 3.524-2.472l.657.5zm-1.262-6.364c0-.605-.342-1.078-.973-1.078-1.893 0-2.866 3.681-3.234 5.128 1.762-.526 4.207-1.972 4.207-4.05zm15.515 5.496h-2.183v-1.551H35v1.551h-2.209v6.574H30.95zm4.759-1.446c.578-.105 1.473-.158 2.446-.158 1.21 0 2.051.184 2.63.631.473.394.736.947.736 1.709 0 1.026-.736 1.736-1.42 1.998v.026c.578.237.868.763 1.078 1.525.263.92.5 1.972.657 2.288H39.97c-.131-.237-.316-.894-.578-1.893-.21-.999-.578-1.288-1.315-1.288h-.552v3.182h-1.814v-8.02zm1.815 3.497h.71c.92 0 1.446-.447 1.446-1.157 0-.736-.5-1.131-1.341-1.131-.447 0-.71.026-.841.053v2.235h.026zm6.889-3.602v4.681c0 1.394.526 2.104 1.473 2.104.973 0 1.499-.684 1.499-2.104v-4.681h1.841v4.549c0 2.498-1.262 3.708-3.392 3.708-2.051 0-3.261-1.131-3.261-3.734v-4.523h1.841zm6.101 6.232c.5.263 1.262.5 2.025.5.841 0 1.288-.342 1.288-.868 0-.5-.394-.789-1.367-1.157-1.341-.473-2.235-1.21-2.235-2.393 0-1.394 1.157-2.446 3.077-2.446.92 0 1.578.184 2.077.421l-.421 1.473a3.764 3.764 0 0 0-1.709-.394c-.789 0-1.183.368-1.183.789 0 .526.447.736 1.499 1.157 1.42.526 2.104 1.288 2.104 2.419 0 1.367-1.052 2.524-3.287 2.524-.92 0-1.841-.237-2.288-.5l.421-1.525zm7.757-4.681h-2.183v-1.551h6.232v1.551h-2.209v6.574h-1.841zm9.572 3.129h-2.998v1.92h3.34v1.499h-5.18v-8.099h4.996v1.525h-3.156v1.683h2.998zm1.499-4.575c.684-.105 1.551-.158 2.472-.158 1.551 0 2.551.289 3.313.868.841.631 1.367 1.63 1.367 3.05 0 1.551-.579 2.63-1.341 3.287-.868.71-2.156 1.052-3.734 1.052-.947 0-1.63-.053-2.077-.131v-7.968zm1.841 6.626c.158.026.421.026.631.026 1.657.026 2.735-.894 2.735-2.84.026-1.683-.973-2.577-2.551-2.577-.421 0-.684.026-.841.079v5.312h.026zm-41.706 9.467c.5.263 1.236.5 2.025.5.841 0 1.288-.342 1.288-.868 0-.5-.394-.789-1.341-1.131-1.341-.473-2.209-1.21-2.209-2.393 0-1.367 1.157-2.419 3.05-2.419.92 0 1.578.184 2.051.394l-.394 1.473c-.316-.158-.894-.394-1.683-.394s-1.183.368-1.183.789c0 .526.447.736 1.499 1.131 1.42.526 2.104 1.262 2.104 2.419 0 1.341-1.052 2.498-3.261 2.498-.92 0-1.841-.237-2.288-.5l.342-1.499zm7.994-6.18v3.103h3.024v-3.103h1.814v8.073h-1.814v-3.366h-2.998v3.366h-1.841v-8.073zm13.648 3.945c0 2.656-1.604 4.26-3.971 4.26-2.393 0-3.787-1.814-3.787-4.102 0-2.419 1.551-4.234 3.918-4.234 2.472 0 3.839 1.841 3.839 4.076zm-5.838.105c0 1.578.736 2.709 1.972 2.709s1.946-1.183 1.946-2.735c0-1.446-.684-2.709-1.946-2.709s-1.972 1.157-1.972 2.735zm6.863-3.944c.552-.105 1.341-.158 2.472-.158s1.92.21 2.472.657c.526.394.868 1.078.868 1.867s-.263 1.473-.736 1.92c-.631.579-1.551.841-2.63.841-.237 0-.447-.026-.631-.026v2.893h-1.814v-7.994zm1.815 3.655c.158.026.342.053.605.053.973 0 1.578-.5 1.578-1.315 0-.736-.526-1.183-1.42-1.183-.368 0-.631.026-.763.079v2.367zm4.943 2.419c.5.263 1.236.5 2.025.5.841 0 1.288-.342 1.288-.868 0-.5-.394-.789-1.341-1.131-1.341-.473-2.209-1.21-2.209-2.393 0-1.367 1.157-2.419 3.05-2.419.92 0 1.578.184 2.051.394l-.394 1.473c-.316-.158-.894-.394-1.683-.394s-1.183.368-1.183.789c0 .526.447.736 1.499 1.131 1.42.526 2.104 1.262 2.104 2.419 0 1.341-1.052 2.498-3.261 2.498-.92 0-1.841-.237-2.288-.5l.342-1.499z"/></symbol><symbol viewBox="0 0 298 297" id="trustmark"><g id="trustmark_Page-1"><g id="trustmark_Trustmark_x5F_sketch_x5F_2021_x5F_v3-01-_x28_1_x29_" transform="translate(.6)"><path id="trustmark_background-circle" d="M148.5 0C230.5 0 297 66.5 297 148.5c-7.8 197-289.2 197-297 0C0 66.5 66.5 0 148.5 0zm1.2 55.6c-123.3 4.9-123.4 181.2 0 186.1 51.4 0 93.1-41.7 93.1-93.1s-41.8-93-93.1-93z" style="fill-rule:evenodd;clip-rule:evenodd;fill:url(#trustmark_background-circle_1_)"/><path id="trustmark_background-gradient" d="M242.7 148.7c0 51.4-41.7 93.1-93.1 93.1-123.4-4.9-123.3-181.2 0-186.1 51.4-.1 93.1 41.6 93.1 93z" style="fill-rule:evenodd;clip-rule:evenodd;fill:url(#trustmark_background-gradient_1_)"/><g id="trustmark_text" transform="translate(15.7 15.677)"><path id="trustmark_Shape" class="st2" d="m231.5 98.7 9.7-3c.6 3.9 3.1 8.4 6.1 10 3.9 2.5 11.1.2 12.5-4.4 2-3.8-1.9-13.8-3.6-17l-26.6 8.3 1.9 6.1zm22.3-7c1.6 2.9 2.3 7.4-1.5 8.5-3.6 1.3-6.1-2.4-6.5-6l8-2.5z"/><path id="trustmark_Shape_1_" class="st2" d="M219.1 74.9c4.6 6.9 12.3 8.4 20.1 3.3 16.2-10.6.8-33.3-15.5-22.3-6.7 4.5-9.3 12.1-4.6 19zm8.4-13.5c4.6-3 9.4-3.2 11.8.4 5.2 7.5-11.2 18.2-15.9 10.6-2.3-3.6-.5-7.9 4.1-11z"/><path id="trustmark_Path" class="st2" d="m194.1 48.2 7.5-9.2 8.2 6.6-7.5 9.2 5 4L225 36.9l-4.9-4.1-6.8 8.5-8.2-6.6 6.8-8.5-5-4-17.7 22z"/><path id="trustmark_Path_1_" class="st2" d="M172.5 36.7c7.1 3.1 12 .8 13.9-3.5 1.6-3.7.5-7-3.4-10.6-2.8-2.7-3.9-4.1-3.2-5.7.6-1.3 2.3-2 4.9-.9 2.5 1.1 4.1 2.6 4.9 3.6l3.3-4.1c-4.8-5.5-16-8.3-19.2-.6-1.6 3.8.2 7.4 3.8 10.8 2.7 2.4 3.5 3.9 2.8 5.5-1.9 4.4-9.6-1.1-11.1-3.4l-3.3 4.3c1 1.2 3.6 3.3 6.6 4.6z"/><path id="trustmark_Shape_2_" class="st2" d="M143.5 3.2C139.6-.5 129-.4 123.4.5l-.5 27.7c5.7 1 16.1 1 20.4-2.9 5.8-4.4 6.8-17.5.2-22.1zm-12 20.5c-.8 0-1.7 0-2.2-.2l.3-18.5c6.2-1.1 12 1.6 11.7 8.9-.1 6.9-4 10-9.8 9.8z"/><path id="trustmark_Path_2_" class="st2" d="m115.9 29.4-1.3-5.1-11.2 2.9-1.7-6.5 10.1-2.6-1.3-5-10.1 2.6-1.5-5.7 10.7-2.8-1.3-5.1-16.8 4.4 7 27.4z"/><path id="trustmark_Path_3_" class="st2" d="m69.3 22.5 10.9 20.1 5.6-3.1-10.9-20.1 6.8-3.7-2.6-4.7L60 21.4l2.6 4.7z"/><path id="trustmark_Path_4_" class="st2" d="M53.2 48.2c3.3-1.4 5-1.6 6.2-.3 3.2 3.6-4.9 8.3-7.6 8.8l2.6 4.7c1.8-.4 4.7-1.9 7.1-4.1 5.7-5.2 5.7-10.6 2.5-14.1-2.7-2.9-6.1-3.3-11.1-1.3-3.7 1.5-5.3 1.9-6.6.6-2.7-3.1 4.3-7.4 6.4-7.8L50.3 30c-7 2.1-14.1 11.2-8.4 17.3 2.7 3 6.7 2.8 11.3.9z"/><path id="trustmark_Path_5_" class="st2" d="M44.6 77.9c3.9-6.2 2.7-12.2-4.6-16.8l-13.4-8.4-3.4 5.4 13.7 8.6c4.3 2.7 5.3 5.5 3.5 8.3-1.7 2.7-4.8 3-9 .4l-13.7-8.6-3.4 5.4 13.3 8.4c7.7 4.7 13.2 3.3 17-2.7z"/><path id="trustmark_Shape_3_" class="st2" d="m31.6 107-10.7-3.1.5-1.8c.8-2.5 2-3.4 5.6-3.2 3.6.2 5.9.1 6.9 0l1.8-6.3c-1.2.2-5 0-8.3 0-2.7 0-4.8.5-6.1 2.2h-.1c-.2-5.4-6.9-9.2-11.7-5.8-3.8 2.3-5.9 12.3-6.5 16.5l26.8 7.7 1.8-6.2zm-14.4-6.7-.7 2.4-7.4-2.1c.3-2.9 1.7-7.5 5.6-6.3 2.4.6 3.4 2.9 2.5 6z"/><path id="trustmark_Path_6_" class="st2" d="m28.6 126.8-22.9-.5.2-7.8-5.3-.1-.6 21.7 5.4.1.2-7.6 22.8.6z"/><path id="trustmark_Path_7_" class="st2" d="m34.6 204.7 2.9 4.7-6.9 4.3c-6-4.9-7.3-13.7.7-18.4 8.2-5.4 16.1 1.1 17.3 9.3l2.9-.8c-1.9-10.6-12.7-17.9-22.4-11.6-11.4 7.1-6.9 19.2 1.4 25.6l11.2-6.9-4.8-7.7-2.3 1.5z"/><path id="trustmark_Path_8_" class="st2" d="m69.8 219.3-10.4 12.5c-3.9 4.6-7.6 5-10.7 2.4-2.8-2.3-3.2-6.1.7-10.7l10.4-12.4-2.7-2.3L46.7 221c-5.5 6.5-4.3 11.7 0 15.3 4.5 3.8 10.1 4 15.5-2.4l10.3-12.2-2.7-2.4z"/><path id="trustmark_Shape_4_" class="st2" d="m64.6 248.8 3.3 1.5 6.1-6.7 8.8 4-.9 9 3.4 1.6 2.8-28.8-3.8-1.7-19.7 21.1zM85 231.5c-.7 3.1-1.2 10.1-1.6 13.4l-7.5-3.4c2.3-2.5 7.1-7.4 9.1-10z"/><path id="trustmark_Shape_5_" class="st2" d="M109.1 235.8c-2.4-.5-4.9-.7-6.8-.8l-5.2 26.5 3.5.7 2.3-11.6 3.3.6c3.1.7 4.3 2.4 4.4 6.3.1 3.5.2 5.9.5 6.8l3.6.7c-.4-1.1-.5-3.9-.6-7.8-.1-2.9-.9-5.1-2.8-6.2v-.1c5.3-.4 8.5-7 5.3-11.4-1.5-1.8-3.8-3-7.5-3.7zm4.9 9c-.6 3.1-3.4 4.6-7.1 3.9l-3.5-.7 1.9-9.8c3.9-.1 9.9 1.4 8.7 6.6z"/><path id="trustmark_Shape_6_" class="st2" d="m133.4 238.5-9 27.5h3.7l2.7-8.6 9.7-.1 3 8.6 3.8-.1-9.7-27.2-4.2-.1zm-1.9 16c1-3.2 3.2-9.7 3.9-12.9h.1c.7 3.1 3.2 9.7 4.3 12.8l-8.3.1z"/><path id="trustmark_Path_9_" class="st2" d="M169.3 233.2c1.7 6.3 3.9 16.1 6 21.9l-.1.1c-3.7-4.8-14.2-14.1-18.8-18.6l-3.8 1 6.8 26.4 3.2-.8c-1.6-6.1-4.2-16.7-6-22.2l.1-.1c4 5.1 14.3 14.1 19.1 18.9l3.5-.9-6.8-26.5-3.2.8z"/><path id="trustmark_Path_10_" class="st2" d="m196.1 223.6-1.5-2.6-17.7 9.7 1.4 2.6 7.3-4 11.7 21.4 3.1-1.7-11.7-21.4z"/><path id="trustmark_Path_11_" class="st2" d="m217.4 233.5-6.7-7.3 7.8-7.1-2-2.2-7.8 7.2-5.8-6.4 8.2-7.6-2-2.2-10.9 10.1 18.5 20.1 11.4-10.4-2-2.2z"/><path id="trustmark_Path_12_" class="st2" d="m235.8 213-8.3-5.4 5.8-8.9-2.5-1.5-5.7 8.9-7.3-4.7 6.1-9.5-2.5-1.6-8 12.4 23 14.9 8.3-12.9-2.5-1.7z"/><path id="trustmark_Path_13_" class="st2" d="M265.7 127.1c-.3-6.6-4.2-10.5-9-10.2-4.1.2-6.5 3.5-8 8.2-1 3.5-1.9 4.8-3.7 4.9-4.8.2-3.3-9.1-1.9-11.5l-5.3-1c-.8 1.6-1.5 4.9-1.3 8.1.4 7.7 4.6 11.1 9.3 10.9 4-.2 6.4-2.7 8-7.7 1.2-3.8 1.9-5.3 3.7-5.4 4.2-.1 3 8 1.9 9.9l5.2 1.2c.7-1.8 1.2-4.1 1.1-7.4z"/></g><path id="trustmark_circle-left" d="M38.2 181.4c-.2 6.9-10.2 6.9-10.4 0 .2-6.9 10.2-6.9 10.4 0z" style="fill-rule:evenodd;clip-rule:evenodd;fill:#f7e19e"/><path id="trustmark_circle-right" d="M268.8 181.4c-.2 6.9-10.2 6.9-10.4 0 .2-6.9 10.2-6.9 10.4 0z" style="fill-rule:evenodd;clip-rule:evenodd;fill:#f1cb53"/><path id="trustmark_Shape_7_" d="M167.4 87.1c16 0 27.2 7.6 29.3 19.9 1.2 6.6-.3 12.4-2.3 16.9l-.3.6-.3.6-.3.6c-.3.5-.5 1-.8 1.4l-.3.5-.3.5-.3.5c-.1.1-.1.2-.2.2l-.3.5-.3.4-.3.4-.2.2-.3.4-.4.6c0 .1-.1.1-.1.2l-.4.5-.4.4c-6 6.7-15.6 12.4-29.2 17.7l-1.5.6c-9 3.4-18.3 5.8-27.5 7.9l-2.9.7-2.9.6-4.3.9c-.9 21.9 4.7 33.3 17.2 34.9 1.1.1 2.3.2 3.4.2 7.1 0 13.1-2.9 17.8-6l.7-.5.7-.5.7-.5.7-.5 1-.7c6.2-4.9 11.2-10.7 15.3-16.5l1.5-2 6.8 5.9-.4.5-.9 1.3c-.5.7-.9 1.3-1.4 2l-.9 1.3c-5.7 8-11.6 14.6-19.7 19.8l-.7.4c-.1.1-.2.1-.4.2l-.7.4c-.6.4-1.3.8-1.9 1.1l-.8.4-.8.4c-6.6 3.4-15.4 6.5-25.6 6.5-2.4 0-4.9-.2-7.2-.5-18.6-2.7-29.1-16.1-29.4-37.8v-.7c-.2-20 6-38.4 18.6-54.7l.5-.6c13.9-17.8 30.6-26.9 51.1-27.8.2.4.9.3 1.6.3zm-6.7 9.7c-.8 0-1.7.1-2.5.2l-.5.1c-8.7 1.5-15 7.1-20 13.8l-.6.8c-.1.1-.2.3-.3.4l-.6.8-.6.8-.6.8-.6.8-.5.8-.5.9-.5.9c-5.8 9.4-9.6 20.2-11.8 33.1 13-2.3 24.7-6.7 33.9-12.7 12.8-8.4 19-18.3 18.5-29.2-.5-7.3-5.6-12.3-12.8-12.3z" style="fill-rule:evenodd;clip-rule:evenodd;fill:#006dad"/><g id="trustmark_shadow" transform="translate(92.695 86)"><path id="trustmark_Path_14_" class="st6" d="M3.5 84.8c-.2-20.3 6-39.3 18.8-55.8 13.8-17.8 31.6-26.4 52-27.3.8 0 1.5-.1 2.2-.1 4.2 0 8.1.6 11.5 1.6C83.5 1.1 78.2 0 72.1 0c-.7 0-1.5 0-2.2.1-20.4.9-37.1 10-50.9 27.8C6.2 44.3-.2 63 0 83.2c.2 19.7 8.2 32.3 23.2 36.8-12.3-5.6-19.6-17.5-19.7-35.2z"/><path id="trustmark_Path_15_" class="st6" d="M52 111.7c9.1 0 15-5.1 20.2-9.2 6.5-5.1 12.6-11.9 16.9-17.8l-2.8-2.3-.9 1.4c-4.4 6.1-9.6 12.3-16.3 17.6-5.2 4.1-12.3 8.6-21.4 8.6-1.1 0-2.1-.2-3.2-.3-.7-.1-2.2-.5-2.8-.7 1.9 1 4.6 2.2 7 2.5 1.1.1 2.2.2 3.3.2z"/><path id="trustmark_Path_16_" class="st6" d="M80.4 23.2C81 34.2 74.8 44 62 52.4c-8 5.3-17.9 9.3-28.9 11.7-.2.9-.1.4-.2 1.2C45.8 63 57.2 60 66.4 53.9c12.7-8.4 18.9-18.3 18.4-29.2-.3-6.5-4.2-11.2-10.1-12.2 3.3 2.1 5.4 5.9 5.7 10.7z"/></g></g></g></symbol><symbol viewBox="0 0 26 26" id="verified"><path d="m12.728 0 3.726 3.727h5.274L21.727 9l3.729 3.729-3.729 3.727v5.273l-5.272-.001-3.727 3.729-3.729-3.729H3.728l-.001-5.273L0 12.728 3.727 9V3.728L9 3.727 12.728 0Zm6.015 8.118c-.46-.282-.74.014-.888.15l-6.615 7.068-3.13-2.237c-.2-.135-.477-.405-.888-.069a.608.608 0 0 0-.09.849l3.465 4.797a.792.792 0 0 0 .643.324c.256 0 .495-.12.642-.324L18.872 9c.188-.248.188-.66-.129-.881Z" fill="#005AA0"/></symbol><symbol viewBox="0 0 127 70" id="yellow-wave"><path d="M126 69c-79.51.687-119.51 1.02-120 1-3-2-8-22-5-33C4.525 24.074 14.571 9.282 31 5c30.56-7.966 48 18 95-5 .168 14.044.168 37.044 0 69Z" fill="#FFDC0F"/></symbol><radialGradient id="trustmark_background-circle_1_" cx="-155.787" cy="543.89" r=".683" gradientTransform="matrix(296.2501 0 0 -296.25 46236.98 161209.25)" gradientUnits="userSpaceOnUse"><stop offset="0" style="stop-color:#9b9c9e"/><stop offset=".321" style="stop-color:#656667"/><stop offset=".785" style="stop-color:#1d1d1d"/><stop offset="1" style="stop-color:#000"/></radialGradient><radialGradient id="trustmark_background-gradient_1_" cx="-154.798" cy="544.603" r=".9" gradientTransform="matrix(119.5871 141.954 141.9539 -119.5872 -58694.535 87191.305)" gradientUnits="userSpaceOnUse"><stop offset="0" style="stop-color:#fffefc"/><stop offset=".242" style="stop-color:#fffdf7"/><stop offset="1" style="stop-color:#f1cb54"/></radialGradient><style>.sprite-symbol-usage{display:none}.sprite-symbol-usage:target{display:inline}#trustmark .st2,#trustmark .st6{fill-rule:evenodd;clip-rule:evenodd;fill:#fff}#trustmark .st6{fill:#044d73}</style></defs><use id="arrow-left-usage" xlink:href="#arrow-left" class="sprite-symbol-usage"/><use id="arrow-left-thin-usage" xlink:href="#arrow-left-thin" class="sprite-symbol-usage"/><use id="arrow-right-thin-usage" xlink:href="#arrow-right-thin" class="sprite-symbol-usage"/><use id="check-usage" xlink:href="#check" class="sprite-symbol-usage"/><use id="check-circle-big-usage" xlink:href="#check-circle-big" class="sprite-symbol-usage"/><use id="close-usage" xlink:href="#close" class="sprite-symbol-usage"/><use id="dismiss-large-usage" xlink:href="#dismiss-large" class="sprite-symbol-usage"/><use id="e-trusted-black-usage" xlink:href="#e-trusted-black" class="sprite-symbol-usage"/><use id="e-trusted-gray-usage" xlink:href="#e-trusted-gray" class="sprite-symbol-usage"/><use id="external-link-blue-usage" xlink:href="#external-link-blue" class="sprite-symbol-usage"/><use id="external-link-white-usage" xlink:href="#external-link-white" class="sprite-symbol-usage"/><use id="shield-simplified-usage" xlink:href="#shield-simplified" class="sprite-symbol-usage"/><use id="star-gray-usage" xlink:href="#star-gray" class="sprite-symbol-usage"/><use id="star-yellow-usage" xlink:href="#star-yellow" class="sprite-symbol-usage"/><use id="trusted-shops-usage" xlink:href="#trusted-shops" class="sprite-symbol-usage"/><use id="trustmark-usage" xlink:href="#trustmark" class="sprite-symbol-usage"/><use id="verified-usage" xlink:href="#verified" class="sprite-symbol-usage"/><use id="yellow-wave-usage" xlink:href="#yellow-wave" class="sprite-symbol-usage"/></svg>