<?xml version="1.0" encoding="UTF-8"?>
<!DOCTYPE svg PUBLIC "-//W3C//DTD SVG 1.1//EN" "http://www.w3.org/Graphics/SVG/1.1/DTD/svg11.dtd">
<svg xmlns="http://www.w3.org/2000/svg" version="1.1" width="801px" height="311px" style="shape-rendering:geometricPrecision; text-rendering:geometricPrecision; image-rendering:optimizeQuality; fill-rule:evenodd; clip-rule:evenodd" xmlns:xlink="http://www.w3.org/1999/xlink">
<g><path style="opacity:0.996" fill="#e5e5e5" d="M -0.5,169.5 C -0.5,164.5 -0.5,159.5 -0.5,154.5C 2.1873,154.336 4.85397,154.503 7.5,155C 10.5,158.667 13.5,162.333 16.5,166C 32.5598,180.163 48.3931,179.996 64,165.5C 76.7934,147.442 76.6268,129.608 63.5,112C 52.6661,103.382 40.3327,98.049 26.5,96C 12.6649,90.0046 3.66488,79.8379 -0.5,65.5C -0.5,56.1667 -0.5,46.8333 -0.5,37.5C 12.1758,7.6713 33.5091,-0.828705 63.5,12C 66.6301,14.128 69.4634,16.628 72,19.5C 75.0294,25.7035 73.3627,30.0368 67,32.5C 60.6449,28.1641 53.8116,24.6641 46.5,22C 30.948,19.5271 20.448,25.6937 15,40.5C 10.2785,61.2267 17.7785,75.3934 37.5,83C 77.5393,91.2756 94.0393,115.442 87,155.5C 77.0847,183.366 57.5847,195.199 28.5,191C 16.3659,187.016 6.69924,179.849 -0.5,169.5 Z"/></g>
<g><path style="opacity:0.997" fill="#e5e5e5" d="M 171.5,5.5 C 193.318,4.89269 208.318,14.5594 216.5,34.5C 215.355,40.8238 211.688,43.3238 205.5,42C 202.65,39.1451 200.15,35.9785 198,32.5C 185.531,19.4808 172.031,18.3141 157.5,29C 150.369,36.7087 146.536,45.8754 146,56.5C 145.333,84.8333 145.333,113.167 146,141.5C 146.479,155.295 152.312,166.129 163.5,174C 176.791,179.311 188.291,176.811 198,166.5C 200.234,162.542 203.067,159.042 206.5,156C 214.159,155.329 217.326,158.829 216,166.5C 206.152,185.845 190.319,194.345 168.5,192C 151.4,188.237 139.9,178.07 134,161.5C 132.687,157.58 131.687,153.58 131,149.5C 130.04,114.133 130.374,78.7997 132,43.5C 137.613,22.7159 150.78,10.0493 171.5,5.5 Z"/></g>
<g><path style="opacity:0.997" fill="#e5e5e5" d="M 299.5,5.5 C 328.726,5.88377 345.893,20.5504 351,49.5C 351.667,82.5 351.667,115.5 351,148.5C 344.556,182.641 324.389,196.474 290.5,190C 272.205,181.347 262.039,166.847 260,146.5C 259.333,114.833 259.333,83.1667 260,51.5C 263.219,27.2778 276.385,11.9445 299.5,5.5 Z M 333.5,42.5 C 333.838,44.854 334.338,47.1873 335,49.5C 335.799,84.1854 335.633,118.852 334.5,153.5C 325.434,175.868 310.101,181.701 288.5,171C 281.846,164.527 277.679,156.693 276,147.5C 275.833,131.667 275.667,115.833 275.5,100C 275.375,82.1304 275.875,64.2971 277,46.5C 282.379,27.0964 294.879,19.263 314.5,23C 323.775,26.7735 330.109,33.2735 333.5,42.5 Z"/></g>
<g><path style="opacity:0.998" fill="#e4e4e4" d="M 445.5,26.5 C 444.732,27.2625 444.232,28.2625 444,29.5C 443.5,82.1656 443.333,134.832 443.5,187.5C 442.824,191.348 440.491,193.015 436.5,192.5C 432.509,193.015 430.176,191.348 429.5,187.5C 429.667,134.832 429.5,82.1656 429,29.5C 428.768,28.2625 428.268,27.2625 427.5,26.5C 425.954,23.8001 423.621,21.9668 420.5,21C 411.092,20.918 401.759,20.2514 392.5,19C 388.043,13.8652 388.71,9.53186 394.5,6C 422.833,5.33333 451.167,5.33333 479.5,6C 483.292,8.05271 484.458,11.2194 483,15.5C 482.535,16.9308 481.701,18.0975 480.5,19C 471.241,20.2514 461.908,20.918 452.5,21C 449.379,21.9668 447.046,23.8001 445.5,26.5 Z"/></g>
<g><path style="opacity:0.997" fill="#e5e5e5" d="M 563.5,5.5 C 576.504,5.33344 589.504,5.50011 602.5,6C 607.648,9.33358 608.814,13.8336 606,19.5C 604.829,20.8932 603.329,21.7265 601.5,22C 587.432,22.0522 573.432,22.7188 559.5,24C 551.205,27.6303 545.705,33.797 543,42.5C 538.941,57.4495 538.608,72.4495 542,87.5C 545.069,90.8067 548.902,92.3067 553.5,92C 563.167,92.3333 572.833,92.6667 582.5,93C 585.886,96.3731 586.386,100.206 584,104.5C 583.25,105.126 582.416,105.626 581.5,106C 570.5,106.333 559.5,106.667 548.5,107C 543.478,108.692 540.645,112.192 540,117.5C 534.175,166.502 555.675,186.502 604.5,177.5C 608.724,182.655 608.39,187.488 603.5,192C 589.167,192.667 574.833,192.667 560.5,192C 544.883,187.719 534.383,177.886 529,162.5C 527.844,158.877 526.844,155.211 526,151.5C 524.893,134.029 524.393,116.529 524.5,99C 524.667,84.1667 524.833,69.3333 525,54.5C 526.088,36.8194 533.588,22.6527 547.5,12C 552.607,8.93542 557.94,6.76876 563.5,5.5 Z"/></g>
<g><path style="opacity:0.974" fill="#e6e6e5" d="M 682.5,43.5 C 680.926,43.9371 679.759,44.9371 679,46.5C 676.739,50.6963 674.239,54.6963 671.5,58.5C 669.863,56.6838 668.363,54.6838 667,52.5C 662.924,40.6055 658.257,28.9388 653,17.5C 650.131,7.70231 653.631,4.20231 663.5,7C 664.667,8.16667 665.833,9.33333 667,10.5C 672.181,21.5262 677.347,32.5262 682.5,43.5 Z"/></g>
<g><path style="opacity:0.969" fill="#e6e6e5" d="M 727.5,60.5 C 727.509,58.6916 727.009,57.0249 726,55.5C 723.417,52.0026 721.084,48.3359 719,44.5C 718.23,43.4019 717.397,43.4019 716.5,44.5C 721.459,32.5826 726.959,20.916 733,9.5C 736.756,5.08205 741.09,4.41539 746,7.5C 747.793,11.9135 747.46,16.2468 745,20.5C 738.843,33.8446 733.01,47.1779 727.5,60.5 Z"/></g>
<g><path style="opacity:0.975" fill="#e8e8e8" d="M 800.5,14.5 C 800.5,19.5 800.5,24.5 800.5,29.5C 792.874,39.7458 783.874,41.0791 773.5,33.5C 766.019,23.073 767.686,14.2397 778.5,7C 787.681,4.29052 795.014,6.79052 800.5,14.5 Z M 779.5,26.5 C 779.248,29.9318 780.581,30.9318 783.5,29.5C 785.203,24.2086 786.869,24.2086 788.5,29.5C 788.804,30.1499 789.137,30.8165 789.5,31.5C 784.977,34.3732 780.977,33.7065 777.5,29.5C 773.577,25.0487 773.577,20.7153 777.5,16.5C 778.167,19.9773 778.834,23.3107 779.5,26.5 Z M 784.5,17.5 C 786.983,17.73 787.483,18.3966 786,19.5C 784.97,19.1639 784.47,18.4972 784.5,17.5 Z M 792.5,20.5 C 793.315,19.5707 794.148,18.5707 795,17.5C 796.923,20.2568 796.756,22.9235 794.5,25.5C 793.05,24.1502 792.383,22.4835 792.5,20.5 Z"/></g>
<g><path style="opacity:0.137" fill="#fbfbfb" d="M 782.5,9.5 C 795.574,10.6524 799.74,17.3191 795,29.5C 786.752,36.8932 779.752,35.8932 774,26.5C 772.067,18.3661 774.9,12.6994 782.5,9.5 Z M 779.5,26.5 C 779.248,29.9318 780.581,30.9318 783.5,29.5C 785.203,24.2086 786.869,24.2086 788.5,29.5C 788.804,30.1499 789.137,30.8165 789.5,31.5C 784.977,34.3732 780.977,33.7065 777.5,29.5C 773.577,25.0487 773.577,20.7153 777.5,16.5C 778.167,19.9773 778.834,23.3107 779.5,26.5 Z M 784.5,17.5 C 784.47,18.4972 784.97,19.1639 786,19.5C 787.483,18.3966 786.983,17.73 784.5,17.5 Z M 792.5,20.5 C 792.383,22.4835 793.05,24.1502 794.5,25.5C 796.756,22.9235 796.923,20.2568 795,17.5C 794.148,18.5707 793.315,19.5707 792.5,20.5 Z"/></g>
<g><path style="opacity:0.942" fill="#e8e8e8" d="M 792.5,20.5 C 791.357,20.9081 790.357,21.5748 789.5,22.5C 791.327,24.4872 792.327,26.8205 792.5,29.5C 791.167,29.5 789.833,29.5 788.5,29.5C 786.869,24.2086 785.203,24.2086 783.5,29.5C 780.581,30.9318 779.248,29.9318 779.5,26.5C 779.5,22.5 779.5,18.5 779.5,14.5C 783.911,14.021 788.078,14.6876 792,16.5C 792.49,17.7932 792.657,19.1266 792.5,20.5 Z M 784.5,17.5 C 784.47,18.4972 784.97,19.1639 786,19.5C 787.483,18.3966 786.983,17.73 784.5,17.5 Z"/></g>
<g><path style="opacity:0.306" fill="#f7f7f7" d="M 427.5,26.5 C 428.268,27.2625 428.768,28.2625 429,29.5C 429.5,82.1656 429.667,134.832 429.5,187.5C 428.816,133.98 428.15,80.313 427.5,26.5 Z"/></g>
<g><path style="opacity:0.223" fill="#f7f7f7" d="M 445.5,26.5 C 444.85,80.313 444.184,133.98 443.5,187.5C 443.333,134.832 443.5,82.1656 444,29.5C 444.232,28.2625 444.732,27.2625 445.5,26.5 Z"/></g>
<g><path style="opacity:1" fill="#b3c627" d="M 682.5,43.5 C 685.012,47.8662 687.012,52.5329 688.5,57.5C 688.427,59.0269 689.094,60.0269 690.5,60.5C 691.773,62.7128 692.773,65.0462 693.5,67.5C 693.5,69.5 694.5,70.5 696.5,70.5C 698.042,71.3007 699.708,71.634 701.5,71.5C 704.167,70.8333 705.833,69.1667 706.5,66.5C 709.304,58.8936 712.638,51.5602 716.5,44.5C 717.397,43.4019 718.23,43.4019 719,44.5C 721.084,48.3359 723.417,52.0026 726,55.5C 727.009,57.0249 727.509,58.6916 727.5,60.5C 722.995,71.5088 718.495,82.5088 714,93.5C 713.333,97.5 713.333,101.5 714,105.5C 715.605,109.485 717.105,113.485 718.5,117.5C 718.12,119.698 718.787,121.365 720.5,122.5C 721.338,122.842 721.672,123.508 721.5,124.5C 721.12,126.698 721.787,128.365 723.5,129.5C 725.352,132.551 726.686,135.884 727.5,139.5C 725.023,143.778 722.523,148.112 720,152.5C 719.184,153.823 718.017,154.489 716.5,154.5C 712.583,146.608 708.75,138.608 705,130.5C 702.001,125.784 698.668,125.451 695,129.5C 690.787,137.925 686.621,146.259 682.5,154.5C 678.146,150.177 674.479,145.177 671.5,139.5C 674.264,132.316 677.264,125.316 680.5,118.5C 682.213,117.365 682.88,115.698 682.5,113.5C 683.512,110.743 684.512,108.076 685.5,105.5C 686.163,103.527 686.496,101.361 686.5,99C 686.672,95.5226 686.006,92.356 684.5,89.5C 679.373,79.5689 675.039,69.2356 671.5,58.5C 674.239,54.6963 676.739,50.6963 679,46.5C 679.759,44.9371 680.926,43.9371 682.5,43.5 Z"/></g>
<g><path style="opacity:0.085" fill="#fbfbfb" d="M 333.5,42.5 C 334.927,44.1484 335.76,46.1484 336,48.5C 336.667,82.1667 336.667,115.833 336,149.5C 335.79,151.058 335.29,152.391 334.5,153.5C 335.633,118.852 335.799,84.1854 335,49.5C 334.338,47.1873 333.838,44.854 333.5,42.5 Z"/></g>
<g><path style="opacity:0.18" fill="#eaeec2" d="M 688.5,57.5 C 689.906,57.9731 690.573,58.9731 690.5,60.5C 689.094,60.0269 688.427,59.0269 688.5,57.5 Z"/></g>
<g><path style="opacity:0.753" fill="#dee49e" d="M 693.5,67.5 C 694.833,68.1667 695.833,69.1667 696.5,70.5C 694.5,70.5 693.5,69.5 693.5,67.5 Z"/></g>
<g><path style="opacity:0.576" fill="#e1e6a8" d="M 706.5,66.5 C 705.833,69.1667 704.167,70.8333 701.5,71.5C 702.833,69.5 704.5,67.8333 706.5,66.5 Z"/></g>
<g><path style="opacity:0.007" fill="#f0f2dc" d="M 684.5,89.5 C 686.006,92.356 686.672,95.5226 686.5,99C 686.496,101.361 686.163,103.527 685.5,105.5C 685.608,100.13 685.275,94.7968 684.5,89.5 Z"/></g>
<g><path style="opacity:0.816" fill="#d8df93" d="M 682.5,113.5 C 682.88,115.698 682.213,117.365 680.5,118.5C 680.796,116.597 681.463,114.93 682.5,113.5 Z"/></g>
<g><path style="opacity:0.902" fill="#dae093" d="M 718.5,117.5 C 719.931,118.78 720.598,120.447 720.5,122.5C 718.787,121.365 718.12,119.698 718.5,117.5 Z"/></g>
<g><path style="opacity:0.871" fill="#dae194" d="M 721.5,124.5 C 722.931,125.78 723.598,127.447 723.5,129.5C 721.787,128.365 721.12,126.698 721.5,124.5 Z"/></g>
<g><path style="opacity:0.991" fill="#e5e5e5" d="M 671.5,139.5 C 674.479,145.177 678.146,150.177 682.5,154.5C 677.347,165.474 672.181,176.474 667,187.5C 663.187,192.806 658.52,193.806 653,190.5C 651.121,187.2 651.121,183.866 653,180.5C 658.552,168.729 663.552,156.729 668,144.5C 669.03,142.654 670.196,140.987 671.5,139.5 Z"/></g>
<g><path style="opacity:0.99" fill="#e5e5e5" d="M 727.5,139.5 C 728.976,141.769 730.476,144.102 732,146.5C 737.313,159.623 742.479,172.79 747.5,186C 747.15,190.598 744.65,192.764 740,192.5C 737.739,192.561 735.739,191.894 734,190.5C 727.487,178.773 721.654,166.773 716.5,154.5C 718.017,154.489 719.184,153.823 720,152.5C 722.523,148.112 725.023,143.778 727.5,139.5 Z"/></g>
<g><path style="opacity:0.922" fill="#ececec" d="M 283.5,262.5 C 289.509,262.334 295.509,262.501 301.5,263C 311.507,267.146 313.174,273.646 306.5,282.5C 313.514,288.391 314.181,294.891 308.5,302C 300.554,306.152 292.387,306.652 284,303.5C 283.5,289.837 283.333,276.171 283.5,262.5 Z M 288.5,266.5 C 293.599,266.175 298.599,266.675 303.5,268C 305.504,270.841 306.004,274.007 305,277.5C 303.786,279.049 302.286,280.215 300.5,281C 296.799,281.59 293.132,281.923 289.5,282C 288.197,276.831 287.864,271.664 288.5,266.5 Z M 289.5,285.5 C 294.599,285.175 299.599,285.675 304.5,287C 308.749,291.801 308.416,296.134 303.5,300C 298.857,300.998 294.19,301.332 289.5,301C 288.19,295.834 288.19,290.667 289.5,285.5 Z"/></g>
<g><path style="opacity:0.937" fill="#ededed" d="M 315.5,262.5 C 317.467,262.261 319.301,262.594 321,263.5C 324.44,270.061 328.606,276.061 333.5,281.5C 337.891,275.925 341.725,269.925 345,263.5C 346.356,262.62 347.856,262.286 349.5,262.5C 349.657,263.873 349.49,265.207 349,266.5C 344.273,272.897 339.94,279.564 336,286.5C 335.667,292.5 335.333,298.5 335,304.5C 333.413,305.727 332.079,305.394 331,303.5C 330.667,297.833 330.333,292.167 330,286.5C 324.875,278.567 320.042,270.567 315.5,262.5 Z"/></g>
<g><path style="opacity:0.919" fill="#ededed" d="M 372.5,262.5 C 376.182,262.335 379.848,262.501 383.5,263C 386.193,263.343 388.193,264.676 389.5,267C 387.495,269.603 385.162,269.603 382.5,267C 376.061,264.828 371.728,266.828 369.5,273C 370.112,275.058 371.112,276.891 372.5,278.5C 376.711,280.626 381.044,282.459 385.5,284C 390.626,288.174 391.793,293.341 389,299.5C 381.936,306.544 374.103,307.377 365.5,302C 362.96,299.914 363.127,298.414 366,297.5C 370.031,300.511 374.531,301.677 379.5,301C 386.16,298.065 387.493,293.731 383.5,288C 379.729,285.781 375.729,284.115 371.5,283C 363.327,275.847 363.661,269.014 372.5,262.5 Z"/></g>
<g><path style="opacity:0.927" fill="#ececec" d="M 393.5,262.5 C 394.873,262.343 396.207,262.51 397.5,263C 400.667,267.5 403.833,272 407,276.5C 407.739,277.574 408.739,278.241 410,278.5C 414.278,273.456 418.445,268.29 422.5,263C 435.162,262.5 447.829,262.333 460.5,262.5C 460.67,263.822 460.337,264.989 459.5,266C 455.247,266.2 451.08,266.7 447,267.5C 446.667,279.833 446.333,292.167 446,304.5C 444.286,305.925 442.953,305.592 442,303.5C 441.59,291.409 441.424,279.409 441.5,267.5C 436.665,266.757 431.832,266.09 427,265.5C 425.395,266.101 424.062,267.101 423,268.5C 419.204,273.123 416.038,278.123 413.5,283.5C 416.824,289.473 420.658,295.14 425,300.5C 426.009,302.025 426.509,303.692 426.5,305.5C 423.737,305.256 421.571,303.923 420,301.5C 417.218,296.258 413.718,291.592 409.5,287.5C 405.282,291.592 401.782,296.258 399,301.5C 397.833,302.667 396.667,303.833 395.5,305C 392.909,305.301 392.075,304.134 393,301.5C 397.692,295.641 402.192,289.641 406.5,283.5C 402.912,277.99 399.078,272.657 395,267.5C 393.991,265.975 393.491,264.308 393.5,262.5 Z"/></g>
</svg>
