<?xml version="1.0" encoding="UTF-8"?>
<!DOCTYPE svg PUBLIC "-//W3C//DTD SVG 1.1//EN" "http://www.w3.org/Graphics/SVG/1.1/DTD/svg11.dtd">
<svg xmlns="http://www.w3.org/2000/svg" version="1.1" width="923px" height="270px" style="shape-rendering:geometricPrecision; text-rendering:geometricPrecision; image-rendering:optimizeQuality; fill-rule:evenodd; clip-rule:evenodd" xmlns:xlink="http://www.w3.org/1999/xlink">
<g><path style="opacity:0.294" fill="#c2cde2" d="M 148.5,24.5 C 142.907,23.026 137.241,21.8593 131.5,21C 104.458,20.1843 77.4577,20.351 50.5,21.5C 51.347,20.0337 52.6803,19.2004 54.5,19C 80.486,19.2236 106.486,19.557 132.5,20C 138.257,20.4244 143.59,21.9244 148.5,24.5 Z"/></g>
<g><path style="opacity:0.294" fill="#bdd8f6" d="M 545.5,20.5 C 571.997,19.3365 598.664,19.1698 625.5,20C 631.257,20.4244 636.59,21.9244 641.5,24.5C 635.907,23.026 630.241,21.8593 624.5,21C 598.169,20.5 571.835,20.3334 545.5,20.5 Z"/></g>
<g><path style="opacity:0.365" fill="#a7ccf3" d="M 920.5,20.5 C 906.451,20.2013 892.451,20.5346 878.5,21.5C 878.611,20.8826 878.944,20.3826 879.5,20C 893.34,19.1728 907.006,19.3395 920.5,20.5 Z"/></g>
<g><path style="opacity:1" fill="#093288" d="M 148.5,24.5 C 149.78,25.9313 151.447,26.5979 153.5,26.5C 155.819,26.9925 157.819,27.9925 159.5,29.5C 160.733,31.7964 162.733,33.1298 165.5,33.5C 166.5,33.8333 167.167,34.5 167.5,35.5C 167.973,36.9063 168.973,37.573 170.5,37.5C 172.167,38.5 173.5,39.8333 174.5,41.5C 174.738,43.4044 175.738,44.7377 177.5,45.5C 177.799,47.4553 178.799,48.7886 180.5,49.5C 180.427,51.0269 181.094,52.0269 182.5,52.5C 182.157,54.4832 182.824,55.8166 184.5,56.5C 185.256,60.767 186.589,64.767 188.5,68.5C 188.626,73.0113 188.96,77.5113 189.5,82C 188.661,89.1976 187.661,96.3643 186.5,103.5C 184.597,106.53 183.263,109.863 182.5,113.5C 182.672,114.492 182.338,115.158 181.5,115.5C 179.75,116.659 178.75,118.326 178.5,120.5C 178.672,121.492 178.338,122.158 177.5,122.5C 176.094,122.973 175.427,123.973 175.5,125.5C 175.5,126.167 175.167,126.5 174.5,126.5C 172.413,127.585 171.08,129.251 170.5,131.5C 168.167,134.5 165.5,137.167 162.5,139.5C 160.596,139.738 159.262,140.738 158.5,142.5C 156.973,142.427 155.973,143.094 155.5,144.5C 153.973,144.427 152.973,145.094 152.5,146.5C 152.158,147.338 151.492,147.672 150.5,147.5C 145.919,149.13 141.586,151.13 137.5,153.5C 133.43,153.432 129.763,154.432 126.5,156.5C 123.375,157.479 120.042,157.813 116.5,157.5C 103.163,157.333 89.8292,157.5 76.5,158C 75.944,158.383 75.6107,158.883 75.5,159.5C 71.9505,179.464 68.6172,199.464 65.5,219.5C 64.3734,220.122 63.3734,220.955 62.5,222C 48.8374,222.5 35.1707,222.667 21.5,222.5C 21.1667,221.5 20.5,220.833 19.5,220.5C 18.5025,215.126 18.8359,209.792 20.5,204.5C 22.1357,200.79 22.8023,196.79 22.5,192.5C 23.1956,183.697 24.5289,175.031 26.5,166.5C 28.1357,162.79 28.8023,158.79 28.5,154.5C 29.2063,145.605 30.5396,136.939 32.5,128.5C 34.1357,124.79 34.8023,120.79 34.5,116.5C 34.1984,113.941 34.5318,111.607 35.5,109.5C 37.1357,105.79 37.8023,101.79 37.5,97.5C 37.5,97.1667 37.5,96.8333 37.5,96.5C 39.1357,92.7905 39.8023,88.7905 39.5,84.5C 39.4379,79.9242 40.1045,75.5909 41.5,71.5C 43.1773,67.4552 43.8439,63.1219 43.5,58.5C 43.2053,56.2646 43.5386,54.2646 44.5,52.5C 46.1773,48.4552 46.8439,44.1219 46.5,39.5C 46.2053,37.2646 46.5386,35.2646 47.5,33.5C 48.4901,29.6145 49.4901,25.6145 50.5,21.5C 77.4577,20.351 104.458,20.1843 131.5,21C 137.241,21.8593 142.907,23.026 148.5,24.5 Z M 124.5,64.5 C 124.833,64.5 125.167,64.5 125.5,64.5C 126.93,65.5375 128.597,66.2041 130.5,66.5C 131.514,67.6737 132.847,68.3404 134.5,68.5C 140.634,74.9093 142.968,82.576 141.5,91.5C 140.566,92.5676 140.232,93.901 140.5,95.5C 138.992,97.1815 137.992,99.1815 137.5,101.5C 134.833,103.5 132.5,105.833 130.5,108.5C 128.847,108.66 127.514,109.326 126.5,110.5C 122.952,111.13 119.619,112.13 116.5,113.5C 104.784,114.144 93.4507,113.478 82.5,111.5C 85.158,96.5519 87.4913,81.5519 89.5,66.5C 90.404,65.791 90.7373,64.791 90.5,63.5C 101.854,63.3403 113.187,63.6736 124.5,64.5 Z"/></g>
<g><path style="opacity:1" fill="#0971e0" d="M 545.5,20.5 C 571.835,20.3334 598.169,20.5 624.5,21C 630.241,21.8593 635.907,23.026 641.5,24.5C 641.987,25.4734 642.487,26.4734 643,27.5C 644.011,26.6634 645.178,26.33 646.5,26.5C 651.165,27.8278 655.165,30.1611 658.5,33.5C 659.035,35.4456 660.368,36.4456 662.5,36.5C 664.167,37.5 665.5,38.8333 666.5,40.5C 667.419,43.0892 669.086,45.0892 671.5,46.5C 671.738,48.4044 672.738,49.7377 674.5,50.5C 674.427,52.0269 675.094,53.0269 676.5,53.5C 679.034,60.2777 680.868,67.2777 682,74.5C 682.357,82.5053 682.19,90.5053 681.5,98.5C 681.737,99.791 681.404,100.791 680.5,101.5C 678.926,103.102 678.259,105.102 678.5,107.5C 676.008,111.151 674.008,115.151 672.5,119.5C 671.094,119.973 670.427,120.973 670.5,122.5C 669.094,122.973 668.427,123.973 668.5,125.5C 667.094,125.973 666.427,126.973 666.5,128.5C 665.5,130.167 664.167,131.5 662.5,132.5C 659.833,134.5 657.5,136.833 655.5,139.5C 655.5,140.167 655.167,140.5 654.5,140.5C 652.596,140.738 651.262,141.738 650.5,143.5C 648.326,143.75 646.659,144.75 645.5,146.5C 639.432,149.205 633.432,151.872 627.5,154.5C 626.432,155.434 625.099,155.768 623.5,155.5C 618.924,155.438 614.591,156.105 610.5,157.5C 596.459,156.851 582.792,157.518 569.5,159.5C 567.824,160.183 567.157,161.517 567.5,163.5C 567.5,163.833 567.5,164.167 567.5,164.5C 566.778,164.918 566.278,165.584 566,166.5C 565.502,169.482 565.335,172.482 565.5,175.5C 564.562,186.409 562.896,197.076 560.5,207.5C 558.498,211.833 557.498,216.5 557.5,221.5C 542.833,222.833 528.167,222.833 513.5,221.5C 512.735,218.904 512.401,216.237 512.5,213.5C 514.136,209.79 514.802,205.79 514.5,201.5C 514.198,198.941 514.532,196.607 515.5,194.5C 517.177,190.455 517.844,186.122 517.5,181.5C 517.205,179.265 517.539,177.265 518.5,175.5C 520.669,169.48 521.669,163.147 521.5,156.5C 523.13,152.089 524.13,147.422 524.5,142.5C 526.151,134.594 527.151,126.594 527.5,118.5C 528.104,109.921 529.438,101.587 531.5,93.5C 533.177,89.4552 533.844,85.1219 533.5,80.5C 533.5,80.1667 533.5,79.8333 533.5,79.5C 535.741,73.831 536.741,67.831 536.5,61.5C 536.205,59.2646 536.539,57.2646 537.5,55.5C 539.177,51.4552 539.844,47.1219 539.5,42.5C 539.5,42.1667 539.5,41.8333 539.5,41.5C 541.741,35.831 542.741,29.831 542.5,23.5C 543.833,22.8333 544.833,21.8333 545.5,20.5 Z M 622.5,65.5 C 623.899,66.8897 625.566,67.8897 627.5,68.5C 628.833,70.5 630.5,72.1667 632.5,73.5C 633.688,77.2658 634.688,81.0992 635.5,85C 634.659,89.551 633.659,94.051 632.5,98.5C 631.662,98.8417 631.328,99.5084 631.5,100.5C 629.367,102.091 627.701,104.091 626.5,106.5C 625.29,106.932 624.29,107.599 623.5,108.5C 621.847,108.66 620.514,109.326 619.5,110.5C 616.267,111.609 612.934,112.442 609.5,113C 598.172,113.5 586.838,113.667 575.5,113.5C 575.5,112.833 575.5,112.167 575.5,111.5C 576.581,108.373 577.247,105.04 577.5,101.5C 577.5,100.833 577.5,100.167 577.5,99.5C 578.795,95.7329 579.461,91.7329 579.5,87.5C 579.5,87.1667 579.5,86.8333 579.5,86.5C 580.795,82.7329 581.461,78.7329 581.5,74.5C 582.687,71.0542 583.354,67.3875 583.5,63.5C 596.568,63.1319 609.568,63.7986 622.5,65.5 Z"/></g>
<g><path style="opacity:1" fill="#0871e0" d="M 920.5,20.5 C 921.167,20.5 921.833,20.5 922.5,20.5C 922.5,25.1667 922.5,29.8333 922.5,34.5C 920.45,40.5261 919.45,46.8595 919.5,53.5C 919.634,55.2915 919.301,56.9582 918.5,58.5C 916.158,66.8825 914.825,75.5492 914.5,84.5C 914.1,90.7252 913.1,96.7252 911.5,102.5C 909.431,111.262 908.098,120.262 907.5,129.5C 905.45,135.526 904.45,141.859 904.5,148.5C 903.011,152.236 902.344,156.236 902.5,160.5C 898.882,177.218 896.215,194.218 894.5,211.5C 894.932,214.877 894.265,217.877 892.5,220.5C 890.586,221.185 888.586,221.685 886.5,222C 874.171,222.5 861.838,222.667 849.5,222.5C 847.676,219.154 847.01,215.487 847.5,211.5C 847.5,210.5 847.5,209.5 847.5,208.5C 849.217,205.155 849.884,201.489 849.5,197.5C 849.95,192.798 850.617,188.132 851.5,183.5C 852.222,183.082 852.722,182.416 853,181.5C 853.912,176.536 854.412,171.536 854.5,166.5C 854.98,161.47 855.647,156.47 856.5,151.5C 858.217,148.155 858.884,144.489 858.5,140.5C 858.779,135.773 859.446,131.107 860.5,126.5C 861.222,126.082 861.722,125.416 862,124.5C 862.548,120.83 863.048,117.163 863.5,113.5C 864.222,113.082 864.722,112.416 865,111.5C 865.611,104.836 866.111,98.1697 866.5,91.5C 866.5,90.5 866.5,89.5 866.5,88.5C 870.061,79.3755 871.728,69.7088 871.5,59.5C 873.104,55.1004 873.771,50.4338 873.5,45.5C 873.779,40.7732 874.446,36.1065 875.5,31.5C 876.993,28.4168 877.993,25.0835 878.5,21.5C 892.451,20.5346 906.451,20.2013 920.5,20.5 Z"/></g>
<g><path style="opacity:0.176" fill="#d1e4f9" d="M 545.5,20.5 C 544.833,21.8333 543.833,22.8333 542.5,23.5C 542.5,21.5 543.5,20.5 545.5,20.5 Z"/></g>
<g><path style="opacity:0.294" fill="#bac5dd" d="M 148.5,24.5 C 150.553,24.4021 152.22,25.0687 153.5,26.5C 151.447,26.5979 149.78,25.9313 148.5,24.5 Z"/></g>
<g><path style="opacity:1" fill="#85a8ed" d="M 641.5,24.5 C 643.553,24.4021 645.22,25.0687 646.5,26.5C 645.178,26.33 644.011,26.6634 643,27.5C 642.487,26.4734 641.987,25.4734 641.5,24.5 Z"/></g>
<g><path style="opacity:0.753" fill="#90baef" d="M 878.5,21.5 C 877.993,25.0835 876.993,28.4168 875.5,31.5C 875.804,28.4781 876.304,25.4781 877,22.5C 877.383,21.944 877.883,21.6107 878.5,21.5 Z"/></g>
<g><path style="opacity:0.055" fill="#dbe0ed" d="M 50.5,21.5 C 49.4901,25.6145 48.4901,29.6145 47.5,33.5C 47.3367,31.1432 47.5034,28.8098 48,26.5C 48.0995,24.3474 48.9328,22.6808 50.5,21.5 Z"/></g>
<g><path style="opacity:0.02" fill="#b1b9d7" d="M 159.5,29.5 C 161.882,30.3507 163.882,31.684 165.5,33.5C 162.733,33.1298 160.733,31.7964 159.5,29.5 Z"/></g>
<g><path style="opacity:0.027" fill="#bfc8df" d="M 167.5,35.5 C 169.027,35.427 170.027,36.0937 170.5,37.5C 168.973,37.573 167.973,36.9063 167.5,35.5 Z"/></g>
<g><path style="opacity:0.584" fill="#9abdf0" d="M 658.5,33.5 C 660.23,34.0256 661.564,35.0256 662.5,36.5C 660.368,36.4456 659.035,35.4456 658.5,33.5 Z"/></g>
<g><path style="opacity:0.094" fill="#cee0f7" d="M 542.5,23.5 C 542.741,29.831 541.741,35.831 539.5,41.5C 539.872,35.2676 540.872,29.2676 542.5,23.5 Z"/></g>
<g><path style="opacity:0.722" fill="#9eabd0" d="M 174.5,41.5 C 176.262,42.2623 177.262,43.5956 177.5,45.5C 175.738,44.7377 174.738,43.4044 174.5,41.5 Z"/></g>
<g><path style="opacity:0.486" fill="#a5c6f2" d="M 666.5,40.5 C 668.914,41.9108 670.581,43.9108 671.5,46.5C 669.086,45.0892 667.419,43.0892 666.5,40.5 Z"/></g>
<g><path style="opacity:0.725" fill="#aeb9d7" d="M 46.5,39.5 C 46.8439,44.1219 46.1773,48.4552 44.5,52.5C 44.6245,47.9515 45.2911,43.6181 46.5,39.5 Z"/></g>
<g><path style="opacity:0.894" fill="#8b97c4" d="M 177.5,45.5 C 179.446,46.0347 180.446,47.368 180.5,49.5C 178.799,48.7886 177.799,47.4553 177.5,45.5 Z"/></g>
<g><path style="opacity:0.494" fill="#9ec4f1" d="M 671.5,46.5 C 673.262,47.2623 674.262,48.5956 674.5,50.5C 672.738,49.7377 671.738,48.4044 671.5,46.5 Z"/></g>
<g><path style="opacity:0.231" fill="#b2d0f4" d="M 922.5,34.5 C 922.5,36.1667 922.5,37.8333 922.5,39.5C 921.5,44.1667 920.5,48.8333 919.5,53.5C 919.45,46.8595 920.45,40.5261 922.5,34.5 Z"/></g>
<g><path style="opacity:0.753" fill="#afccf3" d="M 539.5,42.5 C 539.844,47.1219 539.177,51.4552 537.5,55.5C 537.438,50.9242 538.105,46.5909 539.5,42.5 Z"/></g>
<g><path style="opacity:0.306" fill="#b9c4dd" d="M 180.5,49.5 C 181.906,49.9731 182.573,50.9731 182.5,52.5C 181.094,52.0269 180.427,51.0269 180.5,49.5 Z"/></g>
<g><path style="opacity:0.29" fill="#bad6f5" d="M 674.5,50.5 C 675.906,50.9731 676.573,51.9731 676.5,53.5C 675.094,53.0269 674.427,52.0269 674.5,50.5 Z"/></g>
<g><path style="opacity:0.686" fill="#97bef0" d="M 873.5,45.5 C 873.771,50.4338 873.104,55.1004 871.5,59.5C 871.362,54.5859 872.028,49.9192 873.5,45.5 Z"/></g>
<g><path style="opacity:0.878" fill="#808fbf" d="M 182.5,52.5 C 183.674,53.5137 184.34,54.847 184.5,56.5C 182.824,55.8166 182.157,54.4832 182.5,52.5 Z"/></g>
<g><path style="opacity:0.792" fill="#93a3ca" d="M 184.5,56.5 C 186.806,60.0845 188.139,64.0845 188.5,68.5C 186.589,64.767 185.256,60.767 184.5,56.5 Z"/></g>
<g><path style="opacity:0.812" fill="#536ba9" d="M 124.5,64.5 C 113.187,63.6736 101.854,63.3403 90.5,63.5C 90.7373,64.791 90.404,65.791 89.5,66.5C 89.5,65.1667 89.5,63.8333 89.5,62.5C 100.838,62.3335 112.172,62.5001 123.5,63C 124.056,63.3826 124.389,63.8826 124.5,64.5 Z"/></g>
<g><path style="opacity:0.835" fill="#7e90bf" d="M 125.5,64.5 C 127.698,64.1201 129.365,64.7868 130.5,66.5C 128.597,66.2041 126.93,65.5375 125.5,64.5 Z"/></g>
<g><path style="opacity:0.976" fill="#77a4ec" d="M 622.5,65.5 C 624.989,65.2407 626.656,66.2407 627.5,68.5C 625.566,67.8897 623.899,66.8897 622.5,65.5 Z"/></g>
<g><path style="opacity:0.729" fill="#aebad7" d="M 43.5,58.5 C 43.8439,63.1219 43.1773,67.4552 41.5,71.5C 41.4379,66.9242 42.1045,62.5909 43.5,58.5 Z"/></g>
<g><path style="opacity:0.624" fill="#b1cef3" d="M 627.5,68.5 C 630.167,69.1667 631.833,70.8333 632.5,73.5C 630.5,72.1667 628.833,70.5 627.5,68.5 Z"/></g>
<g><path style="opacity:0.447" fill="#a0c5f2" d="M 918.5,58.5 C 918.938,58.4346 919.272,58.6012 919.5,59C 917.624,67.5597 915.958,76.0597 914.5,84.5C 914.825,75.5492 916.158,66.8825 918.5,58.5 Z"/></g>
<g><path style="opacity:0.963" fill="#72a1ea" d="M 871.5,59.5 C 871.728,69.7088 870.061,79.3755 866.5,88.5C 867.431,78.5758 869.098,68.9091 871.5,59.5 Z"/></g>
<g><path style="opacity:0.275" fill="#b1bdd9" d="M 134.5,68.5 C 136.371,68.8588 137.871,69.8588 139,71.5C 142.205,76.7705 143.539,82.4372 143,88.5C 142.768,89.7375 142.268,90.7375 141.5,91.5C 142.968,82.576 140.634,74.9093 134.5,68.5 Z"/></g>
<g><path style="opacity:1" fill="#023087" d="M 294.5,84.5 C 296.147,86.3264 298.147,87.6597 300.5,88.5C 301.401,90.7271 303.067,91.7271 305.5,91.5C 305.5,89.5 305.5,87.5 305.5,85.5C 305.5,85.1667 305.5,84.8333 305.5,84.5C 306.627,83.8783 307.627,83.045 308.5,82C 322.212,81.2025 335.878,81.3691 349.5,82.5C 343.212,127.898 336.378,173.231 329,218.5C 328.535,219.931 327.701,221.097 326.5,222C 313.504,222.5 300.504,222.667 287.5,222.5C 287.167,221.5 286.5,220.833 285.5,220.5C 285.664,217.813 285.497,215.146 285,212.5C 284.283,213.044 283.783,213.711 283.5,214.5C 281.973,214.427 280.973,215.094 280.5,216.5C 278.181,216.992 276.181,217.992 274.5,219.5C 268.608,221.608 262.608,223.442 256.5,225C 249.174,225.5 241.841,225.666 234.5,225.5C 232.585,225.784 230.919,225.451 229.5,224.5C 227.786,223.262 225.786,222.595 223.5,222.5C 222.365,220.787 220.698,220.12 218.5,220.5C 217.22,219.069 215.553,218.402 213.5,218.5C 213.027,217.094 212.027,216.427 210.5,216.5C 209.508,216.672 208.842,216.338 208.5,215.5C 207.089,213.086 205.089,211.419 202.5,210.5C 200.833,208.167 198.833,206.167 196.5,204.5C 195.5,204.167 194.833,203.5 194.5,202.5C 194.573,200.973 193.906,199.973 192.5,199.5C 191.89,197.566 190.89,195.899 189.5,194.5C 180.23,171.506 180.23,148.506 189.5,125.5C 191.008,123.819 192.008,121.819 192.5,119.5C 194.528,115.816 196.528,112.15 198.5,108.5C 203.93,102.614 209.597,96.9473 215.5,91.5C 235.143,78.6743 256.477,74.5077 279.5,79C 284.639,80.5453 289.639,82.3786 294.5,84.5 Z M 272.5,119.5 C 274.649,120.736 276.982,121.736 279.5,122.5C 279.842,123.338 280.508,123.672 281.5,123.5C 281.973,124.906 282.973,125.573 284.5,125.5C 285.833,127.5 287.5,129.167 289.5,130.5C 290.597,133.686 291.93,136.686 293.5,139.5C 294.329,144.453 294.663,149.453 294.5,154.5C 293.388,156.599 292.721,158.933 292.5,161.5C 290.983,164.035 289.65,166.702 288.5,169.5C 287.094,169.973 286.427,170.973 286.5,172.5C 284.5,173.833 282.833,175.5 281.5,177.5C 279.973,177.427 278.973,178.094 278.5,179.5C 275.9,180.468 273.566,181.801 271.5,183.5C 271.167,183.5 270.833,183.5 270.5,183.5C 268.214,183.595 266.214,184.262 264.5,185.5C 259.5,185.5 254.5,185.5 249.5,185.5C 247.401,184.388 245.067,183.721 242.5,183.5C 241.71,182.599 240.71,181.932 239.5,181.5C 239.158,180.662 238.492,180.328 237.5,180.5C 235.833,178.167 233.833,176.167 231.5,174.5C 230.89,172.566 229.89,170.899 228.5,169.5C 228.204,167.597 227.537,165.93 226.5,164.5C 224.421,152.82 226.755,142.154 233.5,132.5C 235.833,130.833 237.833,128.833 239.5,126.5C 241.027,126.573 242.027,125.906 242.5,124.5C 246.155,122.623 249.822,120.957 253.5,119.5C 259.839,118.249 266.172,118.249 272.5,119.5 Z"/></g>
<g><path style="opacity:0.11" fill="#ccdef7" d="M 536.5,61.5 C 536.741,67.831 535.741,73.831 533.5,79.5C 534.013,73.2908 535.013,67.2908 536.5,61.5 Z"/></g>
<g><path style="opacity:0.527" fill="#98c1f1" d="M 676.5,53.5 C 683.07,65.615 685.236,78.615 683,92.5C 682.809,94.7078 682.309,96.7078 681.5,98.5C 682.19,90.5053 682.357,82.5053 682,74.5C 680.868,67.2777 679.034,60.2777 676.5,53.5 Z"/></g>
<g><path style="opacity:0.855" fill="#82aeed" d="M 581.5,74.5 C 581.461,78.7329 580.795,82.7329 579.5,86.5C 579.083,82.1829 579.75,78.1829 581.5,74.5 Z"/></g>
<g><path style="opacity:1" fill="#0370e0" d="M 787.5,84.5 C 788.492,84.3284 789.158,84.6618 789.5,85.5C 789.973,86.9063 790.973,87.573 792.5,87.5C 793.809,90.4507 796.143,91.7841 799.5,91.5C 799.5,88.8333 799.5,86.1667 799.5,83.5C 799.5,82.8333 799.833,82.5 800.5,82.5C 814.118,81.5355 827.784,81.2022 841.5,81.5C 842.146,83.1561 842.813,84.8228 843.5,86.5C 836.421,131.557 829.088,176.557 821.5,221.5C 807.882,222.465 794.216,222.798 780.5,222.5C 779.5,222.167 778.833,221.5 778.5,220.5C 778.808,218.076 778.474,215.743 777.5,213.5C 776.893,213.624 776.56,213.957 776.5,214.5C 775.341,216.25 773.674,217.25 771.5,217.5C 769.847,217.66 768.514,218.326 767.5,219.5C 767.158,220.338 766.492,220.672 765.5,220.5C 763.447,220.402 761.78,221.069 760.5,222.5C 756.554,222.882 752.888,223.882 749.5,225.5C 738.315,226.112 727.315,225.112 716.5,222.5C 714.447,222.598 712.78,221.931 711.5,220.5C 709.798,217.475 707.131,216.141 703.5,216.5C 702.415,214.413 700.749,213.08 698.5,212.5C 697.415,210.413 695.749,209.08 693.5,208.5C 692.5,208.167 691.833,207.5 691.5,206.5C 690.527,203.865 688.86,201.865 686.5,200.5C 686.573,198.973 685.906,197.973 684.5,197.5C 680.25,189.324 677.416,180.657 676,171.5C 675.218,160.424 675.718,149.424 677.5,138.5C 677.5,138.167 677.5,137.833 677.5,137.5C 679.642,134.2 680.975,130.533 681.5,126.5C 683.771,124.388 685.104,121.721 685.5,118.5C 687.931,116.954 689.264,114.621 689.5,111.5C 691.262,110.738 692.262,109.404 692.5,107.5C 697.833,102.833 702.833,97.8333 707.5,92.5C 709.027,92.573 710.027,91.9063 710.5,90.5C 712.404,90.2624 713.738,89.2624 714.5,87.5C 714.842,86.6618 715.508,86.3284 716.5,86.5C 721.102,86.6962 724.769,85.0295 727.5,81.5C 736.833,79.0468 746.333,77.3801 756,76.5C 767.073,77.0791 777.573,79.7458 787.5,84.5 Z M 765.5,119.5 C 767.936,120.871 770.603,121.871 773.5,122.5C 773.973,123.906 774.973,124.573 776.5,124.5C 785.724,132.508 789.39,142.508 787.5,154.5C 786.232,159.303 784.566,163.969 782.5,168.5C 781.094,168.973 780.427,169.973 780.5,171.5C 777.141,174.529 773.808,177.529 770.5,180.5C 760.322,185.403 749.655,186.736 738.5,184.5C 735.669,182.583 732.669,180.917 729.5,179.5C 728.167,177.5 726.5,175.833 724.5,174.5C 722.574,170.978 720.907,167.312 719.5,163.5C 718.315,154.465 719.648,145.798 723.5,137.5C 724.906,137.027 725.573,136.027 725.5,134.5C 726.906,134.027 727.573,133.027 727.5,131.5C 728.167,131.5 728.5,131.167 728.5,130.5C 730.858,128.471 733.192,126.471 735.5,124.5C 739.578,122.788 743.578,121.121 747.5,119.5C 753.512,118.33 759.512,118.33 765.5,119.5 Z"/></g>
<g><path style="opacity:0.251" fill="#b2d0f4" d="M 787.5,84.5 C 777.573,79.7458 767.073,77.0791 756,76.5C 746.333,77.3801 736.833,79.0468 727.5,81.5C 742.647,75.1005 758.314,73.9339 774.5,78C 779.368,79.3295 783.701,81.4962 787.5,84.5 Z"/></g>
<g><path style="opacity:0.467" fill="#b0bdd9" d="M 349.5,82.5 C 335.878,81.3691 322.212,81.2025 308.5,82C 307.627,83.045 306.627,83.8783 305.5,84.5C 306.024,81.8122 307.691,80.3122 310.5,80C 322.167,79.3333 333.833,79.3333 345.5,80C 347.32,80.2004 348.653,81.0337 349.5,82.5 Z"/></g>
<g><path style="opacity:0.428" fill="#b0bdd9" d="M 406.5,81.5 C 392.496,81.3334 378.496,81.5001 364.5,82C 363.534,85.4351 363.534,88.9351 364.5,92.5C 361.97,89.0878 361.47,85.4211 363,81.5C 363.75,80.8742 364.584,80.3742 365.5,80C 378.167,79.3333 390.833,79.3333 403.5,80C 404.737,80.2321 405.737,80.7321 406.5,81.5 Z"/></g>
<g><path style="opacity:0.427" fill="#b3c0da" d="M 519.5,81.5 C 503.786,81.1974 488.119,81.5307 472.5,82.5C 473.681,80.9328 475.347,80.0995 477.5,80C 482.833,79.8333 488.167,79.6667 493.5,79.5C 501.096,79.9747 508.596,79.9747 516,79.5C 517.302,80.0848 518.469,80.7515 519.5,81.5 Z"/></g>
<g><path style="opacity:0.467" fill="#8dbdef" d="M 841.5,81.5 C 827.784,81.2022 814.118,81.5355 800.5,82.5C 800.611,81.8826 800.944,81.3826 801.5,81C 815.006,80.173 828.34,80.3396 841.5,81.5 Z"/></g>
<g><path style="opacity:0.757" fill="#a5b3d3" d="M 294.5,84.5 C 289.639,82.3786 284.639,80.5453 279.5,79C 256.477,74.5077 235.143,78.6743 215.5,91.5C 219.759,87.359 224.759,84.1923 230.5,82C 250.095,73.879 269.761,73.5457 289.5,81C 291.584,81.6972 293.251,82.8639 294.5,84.5 Z"/></g>
<g><path style="opacity:1" fill="#0e3389" d="M 406.5,81.5 C 406.833,82.5 407.5,83.1667 408.5,83.5C 408.903,86.4855 409.903,89.1522 411.5,91.5C 411.171,94.2282 411.837,96.5615 413.5,98.5C 413.32,102.286 414.32,105.619 416.5,108.5C 416.259,110.898 416.926,112.898 418.5,114.5C 418.171,117.228 418.837,119.562 420.5,121.5C 420.32,125.286 421.32,128.619 423.5,131.5C 423.654,136.289 424.987,140.622 427.5,144.5C 428.612,146.599 429.279,148.933 429.5,151.5C 429.369,152.239 429.536,152.906 430,153.5C 431.372,152.09 432.205,150.423 432.5,148.5C 434.408,147.514 435.408,145.848 435.5,143.5C 436.906,143.027 437.573,142.027 437.5,140.5C 437.328,139.508 437.662,138.842 438.5,138.5C 440.408,137.514 441.408,135.848 441.5,133.5C 441.328,132.508 441.662,131.842 442.5,131.5C 443.906,131.027 444.573,130.027 444.5,128.5C 444.328,127.508 444.662,126.842 445.5,126.5C 446.906,126.027 447.573,125.027 447.5,123.5C 447.328,122.508 447.662,121.842 448.5,121.5C 449.906,121.027 450.573,120.027 450.5,118.5C 450.328,117.508 450.662,116.842 451.5,116.5C 452.906,116.027 453.573,115.027 453.5,113.5C 453.328,112.508 453.662,111.842 454.5,111.5C 455.906,111.027 456.573,110.027 456.5,108.5C 456.66,106.847 457.326,105.514 458.5,104.5C 459.906,104.027 460.573,103.027 460.5,101.5C 461.906,101.027 462.573,100.027 462.5,98.5C 462.66,96.847 463.326,95.5137 464.5,94.5C 465.906,94.0269 466.573,93.0269 466.5,91.5C 466.328,90.5084 466.662,89.8417 467.5,89.5C 468.906,89.0269 469.573,88.0269 469.5,86.5C 469.328,85.5084 469.662,84.8417 470.5,84.5C 471.5,84.1667 472.167,83.5 472.5,82.5C 488.119,81.5307 503.786,81.1974 519.5,81.5C 521.968,83.8415 522.134,86.5082 520,89.5C 505.808,112.564 491.641,135.564 477.5,158.5C 476.094,158.973 475.427,159.973 475.5,161.5C 470.89,170.1 465.89,178.434 460.5,186.5C 459.094,186.973 458.427,187.973 458.5,189.5C 450.89,203.1 442.89,216.434 434.5,229.5C 433.094,229.973 432.427,230.973 432.5,232.5C 429.89,237.767 426.89,242.767 423.5,247.5C 422.094,247.973 421.427,248.973 421.5,250.5C 421.672,251.492 421.338,252.158 420.5,252.5C 419.094,252.973 418.427,253.973 418.5,255.5C 418.672,256.492 418.338,257.158 417.5,257.5C 416.094,257.973 415.427,258.973 415.5,260.5C 414.547,262.61 412.881,263.777 410.5,264C 396.5,264.667 382.5,264.667 368.5,264C 367.944,263.617 367.611,263.117 367.5,262.5C 367.368,259.43 367.701,256.43 368.5,253.5C 368.75,251.326 369.75,249.659 371.5,248.5C 373.408,247.514 374.408,245.848 374.5,243.5C 375.906,243.027 376.573,242.027 376.5,240.5C 378.408,239.514 379.408,237.848 379.5,235.5C 381.408,234.514 382.408,232.848 382.5,230.5C 383.906,230.027 384.573,229.027 384.5,227.5C 385.906,227.027 386.573,226.027 386.5,224.5C 386.328,223.508 386.662,222.842 387.5,222.5C 389.408,221.514 390.408,219.848 390.5,217.5C 391.906,217.027 392.573,216.027 392.5,214.5C 393.11,212.566 394.11,210.899 395.5,209.5C 396.906,209.027 397.573,208.027 397.5,206.5C 399.302,205.685 400.302,204.185 400.5,202C 400.287,198.974 399.287,196.474 397.5,194.5C 395.057,189.5 393.39,184.166 392.5,178.5C 391.098,172.196 389.098,166.196 386.5,160.5C 384.595,156.784 383.261,152.784 382.5,148.5C 382.741,146.102 382.074,144.102 380.5,142.5C 380.862,138.919 379.862,135.919 377.5,133.5C 377.5,133.167 377.5,132.833 377.5,132.5C 377.946,129.99 377.28,127.99 375.5,126.5C 375.975,123.918 375.308,121.918 373.5,120.5C 371.829,113.482 369.995,106.482 368,99.5C 367.617,98.944 367.117,98.6107 366.5,98.5C 365.262,96.7857 364.595,94.7857 364.5,92.5C 363.534,88.9351 363.534,85.4351 364.5,82C 378.496,81.5001 392.496,81.3334 406.5,81.5 Z"/></g>
<g><path style="opacity:0.012" fill="#d3dae9" d="M 406.5,81.5 C 407.833,81.5 408.5,82.1667 408.5,83.5C 407.5,83.1667 406.833,82.5 406.5,81.5 Z"/></g>
<g><path style="opacity:0.322" fill="#bcc8de" d="M 472.5,82.5 C 472.167,83.5 471.5,84.1667 470.5,84.5C 470.5,83.1667 471.167,82.5 472.5,82.5 Z"/></g>
<g><path style="opacity:0.243" fill="#b4c0da" d="M 294.5,84.5 C 297.198,84.8449 299.198,86.1782 300.5,88.5C 298.147,87.6597 296.147,86.3264 294.5,84.5 Z"/></g>
<g><path style="opacity:0.98" fill="#6999ea" d="M 727.5,81.5 C 724.769,85.0295 721.102,86.6962 716.5,86.5C 719.751,84.0431 723.418,82.3764 727.5,81.5 Z"/></g>
<g><path style="opacity:0.161" fill="#c5dcf7" d="M 789.5,85.5 C 791.027,85.427 792.027,86.0937 792.5,87.5C 790.973,87.573 789.973,86.9063 789.5,85.5 Z"/></g>
<g><path style="opacity:0.055" fill="#b6c1db" d="M 305.5,85.5 C 305.5,87.5 305.5,89.5 305.5,91.5C 303.067,91.7271 301.401,90.7271 300.5,88.5C 302.017,88.5106 303.184,89.1772 304,90.5C 304.198,88.6183 304.698,86.9516 305.5,85.5 Z"/></g>
<g><path style="opacity:0.31" fill="#bac4dd" d="M 349.5,82.5 C 350.947,83.1342 351.613,84.3009 351.5,86C 344.603,130.548 337.436,175.048 330,219.5C 329.065,222.102 327.232,223.602 324.5,224C 312.833,224.667 301.167,224.667 289.5,224C 288.584,223.722 287.918,223.222 287.5,222.5C 300.504,222.667 313.504,222.5 326.5,222C 327.701,221.097 328.535,219.931 329,218.5C 336.378,173.231 343.212,127.898 349.5,82.5 Z"/></g>
<g><path style="opacity:0.024" fill="#d7ddeb" d="M 408.5,83.5 C 410.655,85.6174 411.655,88.284 411.5,91.5C 409.903,89.1522 408.903,86.4855 408.5,83.5 Z"/></g>
<g><path style="opacity:0.361" fill="#a9b6d4" d="M 469.5,86.5 C 469.573,88.0269 468.906,89.0269 467.5,89.5C 467.427,87.9731 468.094,86.9731 469.5,86.5 Z"/></g>
<g><path style="opacity:0.765" fill="#accaf3" d="M 533.5,80.5 C 533.844,85.1219 533.177,89.4552 531.5,93.5C 531.438,88.9242 532.105,84.5909 533.5,80.5 Z"/></g>
<g><path style="opacity:0.431" fill="#aaccf3" d="M 714.5,87.5 C 713.738,89.2624 712.404,90.2624 710.5,90.5C 711.262,88.7376 712.596,87.7376 714.5,87.5 Z"/></g>
<g><path style="opacity:0.647" fill="#899bc5" d="M 188.5,68.5 C 191.53,80.3596 190.863,92.0263 186.5,103.5C 187.661,96.3643 188.661,89.1976 189.5,82C 188.96,77.5113 188.626,73.0113 188.5,68.5 Z"/></g>
<g><path style="opacity:0.894" fill="#7dabed" d="M 799.5,83.5 C 799.5,86.1667 799.5,88.8333 799.5,91.5C 796.143,91.7841 793.809,90.4507 792.5,87.5C 794.229,88.1175 795.729,89.1175 797,90.5C 797.902,88.0731 798.736,85.7397 799.5,83.5 Z"/></g>
<g><path style="opacity:0.686" fill="#b2bcd9" d="M 39.5,84.5 C 39.8023,88.7905 39.1357,92.7905 37.5,96.5C 37.5387,92.2671 38.2053,88.2671 39.5,84.5 Z"/></g>
<g><path style="opacity:0.839" fill="#8cb5ee" d="M 579.5,87.5 C 579.461,91.7329 578.795,95.7329 577.5,99.5C 577.083,95.1829 577.75,91.1829 579.5,87.5 Z"/></g>
<g><path style="opacity:0.576" fill="#9cc5f1" d="M 710.5,90.5 C 710.027,91.9063 709.027,92.573 707.5,92.5C 707.973,91.0937 708.973,90.427 710.5,90.5 Z"/></g>
<g><path style="opacity:0.357" fill="#a9b6d5" d="M 466.5,91.5 C 466.573,93.0269 465.906,94.0269 464.5,94.5C 464.427,92.9731 465.094,91.9731 466.5,91.5 Z"/></g>
<g><path style="opacity:0.145" fill="#b4d1f4" d="M 632.5,73.5 C 635.491,76.6342 636.824,80.4675 636.5,85C 636.448,89.9812 635.114,94.4812 632.5,98.5C 633.659,94.051 634.659,89.551 635.5,85C 634.688,81.0992 633.688,77.2658 632.5,73.5 Z"/></g>
<g><path style="opacity:0.694" fill="#8d9ec8" d="M 215.5,91.5 C 209.597,96.9473 203.93,102.614 198.5,108.5C 200.423,105.397 202.59,102.397 205,99.5C 208.395,96.5932 211.895,93.9265 215.5,91.5 Z"/></g>
<g><path style="opacity:0.047" fill="#c1c9e0" d="M 411.5,91.5 C 412.924,93.5145 413.59,95.8478 413.5,98.5C 411.837,96.5615 411.171,94.2282 411.5,91.5 Z"/></g>
<g><path style="opacity:0.31" fill="#aab6d5" d="M 140.5,95.5 C 140.975,98.3126 139.975,100.313 137.5,101.5C 137.992,99.1815 138.992,97.1815 140.5,95.5 Z"/></g>
<g><path style="opacity:0.451" fill="#95a4cb" d="M 462.5,98.5 C 462.573,100.027 461.906,101.027 460.5,101.5C 460.427,99.9731 461.094,98.9731 462.5,98.5 Z"/></g>
<g><path style="opacity:0.792" fill="#92bbf1" d="M 707.5,92.5 C 702.833,97.8333 697.833,102.833 692.5,107.5C 696.5,101.5 701.5,96.5 707.5,92.5 Z"/></g>
<g><path style="opacity:0.82" fill="#97a5cb" d="M 413.5,98.5 C 415.101,101.55 416.101,104.884 416.5,108.5C 414.32,105.619 413.32,102.286 413.5,98.5 Z"/></g>
<g><path style="opacity:0.404" fill="#b2bed9" d="M 137.5,101.5 C 136.167,104.833 133.833,107.167 130.5,108.5C 132.5,105.833 134.833,103.5 137.5,101.5 Z"/></g>
<g><path style="opacity:0.318" fill="#b2bed9" d="M 460.5,101.5 C 460.573,103.027 459.906,104.027 458.5,104.5C 458.427,102.973 459.094,101.973 460.5,101.5 Z"/></g>
<g><path style="opacity:0.741" fill="#aab6d5" d="M 37.5,97.5 C 37.8023,101.79 37.1357,105.79 35.5,109.5C 35.5387,105.267 36.2053,101.267 37.5,97.5 Z"/></g>
<g><path style="opacity:0.827" fill="#89b3ee" d="M 577.5,101.5 C 577.247,105.04 576.581,108.373 575.5,111.5C 575.336,108.813 575.503,106.146 576,103.5C 576.278,102.584 576.778,101.918 577.5,101.5 Z"/></g>
<g><path style="opacity:0.447" fill="#a7caf3" d="M 680.5,101.5 C 680.405,103.786 679.738,105.786 678.5,107.5C 678.259,105.102 678.926,103.102 680.5,101.5 Z"/></g>
<g><path style="opacity:0.851" fill="#7fadee" d="M 631.5,100.5 C 630.753,103.362 629.086,105.362 626.5,106.5C 627.701,104.091 629.367,102.091 631.5,100.5 Z"/></g>
<g><path style="opacity:0.988" fill="#5b92e7" d="M 866.5,91.5 C 866.111,98.1697 865.611,104.836 865,111.5C 864.722,112.416 864.222,113.082 863.5,113.5C 863.5,111.833 863.5,110.167 863.5,108.5C 863.98,102.614 864.98,96.9478 866.5,91.5 Z"/></g>
<g><path style="opacity:0.396" fill="#97a8cc" d="M 186.5,103.5 C 186.128,107.297 184.794,110.63 182.5,113.5C 183.263,109.863 184.597,106.53 186.5,103.5 Z"/></g>
<g><path style="opacity:0.271" fill="#bed8f6" d="M 623.5,108.5 C 622.713,110.104 621.38,110.771 619.5,110.5C 620.514,109.326 621.847,108.66 623.5,108.5 Z"/></g>
<g><path style="opacity:0.455" fill="#abcdf4" d="M 692.5,107.5 C 692.262,109.404 691.262,110.738 689.5,111.5C 689.738,109.596 690.738,108.262 692.5,107.5 Z"/></g>
<g><path style="opacity:0.42" fill="#9aa8cd" d="M 456.5,108.5 C 456.573,110.027 455.906,111.027 454.5,111.5C 454.427,109.973 455.094,108.973 456.5,108.5 Z"/></g>
<g><path style="opacity:0.812" fill="#92a2ca" d="M 126.5,110.5 C 123.749,112.975 120.416,113.975 116.5,113.5C 119.619,112.13 122.952,111.13 126.5,110.5 Z"/></g>
<g><path style="opacity:0.518" fill="#909fc8" d="M 366.5,98.5 C 367.117,98.6107 367.617,98.944 368,99.5C 369.995,106.482 371.829,113.482 373.5,120.5C 370.566,113.455 368.233,106.121 366.5,98.5 Z"/></g>
<g><path style="opacity:0.667" fill="#a7b4d5" d="M 416.5,108.5 C 417.738,110.214 418.405,112.214 418.5,114.5C 416.926,112.898 416.259,110.898 416.5,108.5 Z"/></g>
<g><path style="opacity:0.129" fill="#c1d9f6" d="M 841.5,81.5 C 843.876,82.512 844.876,84.3454 844.5,87C 837.853,130.196 831.02,173.362 824,216.5C 823.901,218.653 823.067,220.319 821.5,221.5C 829.088,176.557 836.421,131.557 843.5,86.5C 842.813,84.8228 842.146,83.1561 841.5,81.5 Z"/></g>
<g><path style="opacity:0.31" fill="#adcdf3" d="M 678.5,107.5 C 677.535,112.098 675.535,116.098 672.5,119.5C 674.008,115.151 676.008,111.151 678.5,107.5 Z"/></g>
<g><path style="opacity:0.29" fill="#aebdd8" d="M 82.5,111.5 C 93.4507,113.478 104.784,114.144 116.5,113.5C 105.012,114.495 93.3453,114.828 81.5,114.5C 81.2627,113.209 81.596,112.209 82.5,111.5 Z"/></g>
<g><path style="opacity:0.286" fill="#abcff3" d="M 619.5,110.5 C 617.333,112.511 614.666,113.678 611.5,114C 599.326,114.826 587.326,114.66 575.5,113.5C 586.838,113.667 598.172,113.5 609.5,113C 612.934,112.442 616.267,111.609 619.5,110.5 Z"/></g>
<g><path style="opacity:0.349" fill="#a9b7d5" d="M 453.5,113.5 C 453.573,115.027 452.906,116.027 451.5,116.5C 451.427,114.973 452.094,113.973 453.5,113.5 Z"/></g>
<g><path style="opacity:0.918" fill="#7daaed" d="M 689.5,111.5 C 689.264,114.621 687.931,116.954 685.5,118.5C 686.079,115.669 687.412,113.336 689.5,111.5 Z"/></g>
<g><path style="opacity:0.235" fill="#b9c5dd" d="M 198.5,108.5 C 196.528,112.15 194.528,115.816 192.5,119.5C 192.167,119.5 191.833,119.5 191.5,119.5C 192.657,115.024 194.99,111.358 198.5,108.5 Z"/></g>
<g><path style="opacity:0.749" fill="#92bbf0" d="M 863.5,108.5 C 863.5,110.167 863.5,111.833 863.5,113.5C 863.048,117.163 862.548,120.83 862,124.5C 861.722,125.416 861.222,126.082 860.5,126.5C 861.143,120.31 862.143,114.31 863.5,108.5 Z"/></g>
<g><path style="opacity:0.349" fill="#a6b4d3" d="M 181.5,115.5 C 181.25,117.674 180.25,119.341 178.5,120.5C 178.75,118.326 179.75,116.659 181.5,115.5 Z"/></g>
<g><path style="opacity:0.447" fill="#8397c3" d="M 272.5,119.5 C 266.172,118.249 259.839,118.249 253.5,119.5C 253.918,118.778 254.584,118.278 255.5,118C 260.5,117.333 265.5,117.333 270.5,118C 271.416,118.278 272.082,118.778 272.5,119.5 Z"/></g>
<g><path style="opacity:0.435" fill="#8ab8ef" d="M 765.5,119.5 C 759.512,118.33 753.512,118.33 747.5,119.5C 747.611,118.883 747.944,118.383 748.5,118C 753.5,117.333 758.5,117.333 763.5,118C 764.416,118.278 765.082,118.778 765.5,119.5 Z"/></g>
<g><path style="opacity:0.808" fill="#a3aed1" d="M 418.5,114.5 C 419.924,116.515 420.59,118.848 420.5,121.5C 418.837,119.562 418.171,117.228 418.5,114.5 Z"/></g>
<g><path style="opacity:0.176" fill="#c6dcf7" d="M 911.5,102.5 C 910.902,111.738 909.569,120.738 907.5,129.5C 908.098,120.262 909.431,111.262 911.5,102.5 Z"/></g>
<g><path style="opacity:0.859" fill="#8998c4" d="M 272.5,119.5 C 274.199,119.34 275.866,119.506 277.5,120C 278.756,120.417 279.423,121.25 279.5,122.5C 276.982,121.736 274.649,120.736 272.5,119.5 Z"/></g>
<g><path style="opacity:0.827" fill="#8eb7f0" d="M 765.5,119.5 C 768.831,119.018 771.497,120.018 773.5,122.5C 770.603,121.871 767.936,120.871 765.5,119.5 Z"/></g>
<g><path style="opacity:0.388" fill="#a0afd1" d="M 450.5,118.5 C 450.573,120.027 449.906,121.027 448.5,121.5C 448.427,119.973 449.094,118.973 450.5,118.5 Z"/></g>
<g><path style="opacity:0.345" fill="#b1d0f4" d="M 747.5,119.5 C 743.578,121.121 739.578,122.788 735.5,124.5C 738.756,121.21 742.756,119.543 747.5,119.5 Z"/></g>
<g><path style="opacity:0.925" fill="#7280b7" d="M 373.5,120.5 C 375.308,121.918 375.975,123.918 375.5,126.5C 374.262,124.786 373.595,122.786 373.5,120.5 Z"/></g>
<g><path style="opacity:0.231" fill="#b2d1f4" d="M 672.5,119.5 C 672.573,121.027 671.906,122.027 670.5,122.5C 670.427,120.973 671.094,119.973 672.5,119.5 Z"/></g>
<g><path style="opacity:0.886" fill="#6b7db4" d="M 191.5,119.5 C 191.833,119.5 192.167,119.5 192.5,119.5C 192.008,121.819 191.008,123.819 189.5,125.5C 189.5,124.833 189.5,124.167 189.5,123.5C 189.66,121.847 190.326,120.514 191.5,119.5 Z"/></g>
<g><path style="opacity:0.753" fill="#aab5d5" d="M 34.5,116.5 C 34.8023,120.79 34.1357,124.79 32.5,128.5C 32.5387,124.267 33.2053,120.267 34.5,116.5 Z"/></g>
<g><path style="opacity:0.047" fill="#c6cfe3" d="M 177.5,122.5 C 177.573,124.027 176.906,125.027 175.5,125.5C 175.427,123.973 176.094,122.973 177.5,122.5 Z"/></g>
<g><path style="opacity:0.094" fill="#b5d2f4" d="M 670.5,122.5 C 670.573,124.027 669.906,125.027 668.5,125.5C 668.427,123.973 669.094,122.973 670.5,122.5 Z"/></g>
<g><path style="opacity:0.478" fill="#99c2f1" d="M 773.5,122.5 C 775.027,122.427 776.027,123.094 776.5,124.5C 774.973,124.573 773.973,123.906 773.5,122.5 Z"/></g>
<g><path style="opacity:0.353" fill="#b0bed8" d="M 281.5,123.5 C 283.027,123.427 284.027,124.094 284.5,125.5C 282.973,125.573 281.973,124.906 281.5,123.5 Z"/></g>
<g><path style="opacity:0.765" fill="#96bdf0" d="M 685.5,118.5 C 685.104,121.721 683.771,124.388 681.5,126.5C 681.896,123.279 683.229,120.612 685.5,118.5 Z"/></g>
<g><path style="opacity:0.035" fill="#c9d1e4" d="M 242.5,124.5 C 242.027,125.906 241.027,126.573 239.5,126.5C 239.973,125.094 240.973,124.427 242.5,124.5 Z"/></g>
<g><path style="opacity:0.753" fill="#8a9bc5" d="M 284.5,125.5 C 287.167,126.167 288.833,127.833 289.5,130.5C 287.5,129.167 285.833,127.5 284.5,125.5 Z"/></g>
<g><path style="opacity:0.871" fill="#99a5cc" d="M 420.5,121.5 C 422.101,124.55 423.101,127.884 423.5,131.5C 421.32,128.619 420.32,125.286 420.5,121.5 Z"/></g>
<g><path style="opacity:0.337" fill="#aab6d5" d="M 447.5,123.5 C 447.573,125.027 446.906,126.027 445.5,126.5C 445.427,124.973 446.094,123.973 447.5,123.5 Z"/></g>
<g><path style="opacity:1" fill="#739feb" d="M 735.5,124.5 C 733.192,126.471 730.858,128.471 728.5,130.5C 728.586,129.504 728.252,128.671 727.5,128C 729.737,125.935 732.403,124.769 735.5,124.5 Z"/></g>
<g><path style="opacity:0.035" fill="#c6dcf8" d="M 668.5,125.5 C 668.573,127.027 667.906,128.027 666.5,128.5C 666.427,126.973 667.094,125.973 668.5,125.5 Z"/></g>
<g><path style="opacity:0.863" fill="#7786ba" d="M 375.5,126.5 C 377.28,127.99 377.946,129.99 377.5,132.5C 376.262,130.786 375.595,128.786 375.5,126.5 Z"/></g>
<g><path style="opacity:0.102" fill="#b8c3dc" d="M 174.5,126.5 C 173.92,128.749 172.587,130.415 170.5,131.5C 171.08,129.251 172.413,127.585 174.5,126.5 Z"/></g>
<g><path style="opacity:0.816" fill="#96bef0" d="M 681.5,126.5 C 680.975,130.533 679.642,134.2 677.5,137.5C 678.025,133.467 679.358,129.8 681.5,126.5 Z"/></g>
<g><path style="opacity:0.337" fill="#adb9d6" d="M 444.5,128.5 C 444.573,130.027 443.906,131.027 442.5,131.5C 442.427,129.973 443.094,128.973 444.5,128.5 Z"/></g>
<g><path style="opacity:0.302" fill="#aebbd7" d="M 289.5,130.5 C 292.165,132.835 293.498,135.835 293.5,139.5C 291.93,136.686 290.597,133.686 289.5,130.5 Z"/></g>
<g><path style="opacity:0.729" fill="#b2cdf4" d="M 527.5,118.5 C 527.151,126.594 526.151,134.594 524.5,142.5C 524.167,142.5 523.833,142.5 523.5,142.5C 524.383,134.295 525.717,126.295 527.5,118.5 Z"/></g>
<g><path style="opacity:0.016" fill="#c9def7" d="M 727.5,131.5 C 727.573,133.027 726.906,134.027 725.5,134.5C 725.427,132.973 726.094,131.973 727.5,131.5 Z"/></g>
<g><path style="opacity:0.698" fill="#8899c4" d="M 377.5,133.5 C 379.862,135.919 380.862,138.919 380.5,142.5C 379.331,139.659 378.331,136.659 377.5,133.5 Z"/></g>
<g><path style="opacity:0.827" fill="#8e9dc7" d="M 423.5,131.5 C 425.204,135.617 426.537,139.951 427.5,144.5C 424.987,140.622 423.654,136.289 423.5,131.5 Z"/></g>
<g><path style="opacity:0.027" fill="#c8def7" d="M 725.5,134.5 C 725.573,136.027 724.906,137.027 723.5,137.5C 723.427,135.973 724.094,134.973 725.5,134.5 Z"/></g>
<g><path style="opacity:1" fill="#719feb" d="M 776.5,124.5 C 779.025,126.177 781.691,127.677 784.5,129C 789.153,137.11 790.486,145.61 788.5,154.5C 788.167,154.5 787.833,154.5 787.5,154.5C 789.39,142.508 785.724,132.508 776.5,124.5 Z"/></g>
<g><path style="opacity:0.604" fill="#a4b1d2" d="M 189.5,123.5 C 189.5,124.167 189.5,124.833 189.5,125.5C 180.23,148.506 180.23,171.506 189.5,194.5C 183.415,183.946 180.415,172.446 180.5,160C 181.084,152.078 182.251,144.245 184,136.5C 185.176,131.78 187.01,127.446 189.5,123.5 Z"/></g>
<g><path style="opacity:0.98" fill="#6f7db5" d="M 441.5,133.5 C 441.408,135.848 440.408,137.514 438.5,138.5C 438.75,136.326 439.75,134.659 441.5,133.5 Z"/></g>
<g><path style="opacity:0.051" fill="#c7ddf7" d="M 662.5,132.5 C 661.167,135.833 658.833,138.167 655.5,139.5C 657.5,136.833 659.833,134.5 662.5,132.5 Z"/></g>
<g><path style="opacity:0.078" fill="#c2cce1" d="M 162.5,139.5 C 161.738,141.262 160.404,142.262 158.5,142.5C 159.262,140.738 160.596,139.738 162.5,139.5 Z"/></g>
<g><path style="opacity:0.102" fill="#c2daf6" d="M 654.5,140.5 C 653.738,142.262 652.404,143.262 650.5,143.5C 651.262,141.738 652.596,140.738 654.5,140.5 Z"/></g>
<g><path style="opacity:0.424" fill="#99a8cc" d="M 437.5,140.5 C 437.573,142.027 436.906,143.027 435.5,143.5C 435.427,141.973 436.094,140.973 437.5,140.5 Z"/></g>
<g><path style="opacity:0.082" fill="#bdc8de" d="M 158.5,142.5 C 158.027,143.906 157.027,144.573 155.5,144.5C 155.973,143.094 156.973,142.427 158.5,142.5 Z"/></g>
<g><path style="opacity:0.224" fill="#b6d2f5" d="M 907.5,129.5 C 907.06,136.053 906.06,142.387 904.5,148.5C 904.45,141.859 905.45,135.526 907.5,129.5 Z"/></g>
<g><path style="opacity:0.314" fill="#adcdf3" d="M 650.5,143.5 C 649.341,145.25 647.674,146.25 645.5,146.5C 646.659,144.75 648.326,143.75 650.5,143.5 Z"/></g>
<g><path style="opacity:0.063" fill="#c5cee2" d="M 155.5,144.5 C 155.027,145.906 154.027,146.573 152.5,146.5C 152.973,145.094 153.973,144.427 155.5,144.5 Z"/></g>
<g><path style="opacity:0.459" fill="#a4b2d3" d="M 380.5,142.5 C 382.074,144.102 382.741,146.102 382.5,148.5C 381.262,146.786 380.595,144.786 380.5,142.5 Z"/></g>
<g><path style="opacity:0.318" fill="#8da0c8" d="M 293.5,139.5 C 294.117,139.611 294.617,139.944 295,140.5C 295.815,145.352 295.648,150.019 294.5,154.5C 294.663,149.453 294.329,144.453 293.5,139.5 Z"/></g>
<g><path style="opacity:0.965" fill="#7c88bc" d="M 435.5,143.5 C 435.408,145.848 434.408,147.514 432.5,148.5C 432.75,146.326 433.75,144.659 435.5,143.5 Z"/></g>
<g><path style="opacity:0.251" fill="#b6d3f4" d="M 645.5,146.5 C 640.297,150.765 634.297,153.431 627.5,154.5C 633.432,151.872 639.432,149.205 645.5,146.5 Z"/></g>
<g><path style="opacity:0.69" fill="#99c1f2" d="M 858.5,140.5 C 858.884,144.489 858.217,148.155 856.5,151.5C 856.808,147.64 857.475,143.974 858.5,140.5 Z"/></g>
<g><path style="opacity:0.302" fill="#9fadd0" d="M 432.5,148.5 C 432.205,150.423 431.372,152.09 430,153.5C 429.536,152.906 429.369,152.239 429.5,151.5C 430.272,150.306 431.272,149.306 432.5,148.5 Z"/></g>
<g><path style="opacity:0.412" fill="#a4b3d3" d="M 150.5,147.5 C 146.776,150.639 142.443,152.639 137.5,153.5C 141.586,151.13 145.919,149.13 150.5,147.5 Z"/></g>
<g><path style="opacity:0.737" fill="#a6c7f2" d="M 523.5,142.5 C 523.833,142.5 524.167,142.5 524.5,142.5C 524.13,147.422 523.13,152.089 521.5,156.5C 521.522,151.728 522.189,147.061 523.5,142.5 Z"/></g>
<g><path style="opacity:0.275" fill="#aab8d6" d="M 137.5,153.5 C 134.146,155.258 130.479,156.258 126.5,156.5C 129.763,154.432 133.43,153.432 137.5,153.5 Z"/></g>
<g><path style="opacity:0.449" fill="#93bdf0" d="M 723.5,137.5 C 719.648,145.798 718.315,154.465 719.5,163.5C 719.167,163.5 718.833,163.5 718.5,163.5C 716.981,156.409 717.481,149.409 720,142.5C 720.697,140.416 721.864,138.749 723.5,137.5 Z"/></g>
<g><path style="opacity:0.396" fill="#9cadcf" d="M 233.5,132.5 C 226.755,142.154 224.421,152.82 226.5,164.5C 225.778,164.082 225.278,163.416 225,162.5C 222.887,150.931 225.721,140.931 233.5,132.5 Z"/></g>
<g><path style="opacity:0.114" fill="#bdd7f5" d="M 623.5,155.5 C 622.737,156.268 621.737,156.768 620.5,157C 617.183,157.498 613.85,157.665 610.5,157.5C 614.591,156.105 618.924,155.438 623.5,155.5 Z"/></g>
<g><path style="opacity:0.318" fill="#bed7f6" d="M 904.5,148.5 C 904.461,152.733 903.795,156.733 902.5,160.5C 902.344,156.236 903.011,152.236 904.5,148.5 Z"/></g>
<g><path style="opacity:0.173" fill="#d3dae9" d="M 116.5,157.5 C 102.962,158.2 89.2951,158.867 75.5,159.5C 75.6107,158.883 75.944,158.383 76.5,158C 89.8292,157.5 103.163,157.333 116.5,157.5 Z"/></g>
<g><path style="opacity:0.155" fill="#d3e5f8" d="M 610.5,157.5 C 596.932,158.183 583.265,158.85 569.5,159.5C 582.792,157.518 596.459,156.851 610.5,157.5 Z"/></g>
<g><path style="opacity:0.804" fill="#8394c2" d="M 294.5,154.5 C 294.662,156.527 294.495,158.527 294,160.5C 293.617,161.056 293.117,161.389 292.5,161.5C 292.721,158.933 293.388,156.599 294.5,154.5 Z"/></g>
<g><path style="opacity:0.106" fill="#c7d0e4" d="M 477.5,158.5 C 477.573,160.027 476.906,161.027 475.5,161.5C 475.427,159.973 476.094,158.973 477.5,158.5 Z"/></g>
<g><path style="opacity:0.024" fill="#d4e4f8" d="M 569.5,159.5 C 569.011,160.995 568.345,162.329 567.5,163.5C 567.157,161.517 567.824,160.183 569.5,159.5 Z"/></g>
<g><path style="opacity:0.839" fill="#8596c3" d="M 292.5,161.5 C 292.741,165.019 291.407,167.685 288.5,169.5C 289.65,166.702 290.983,164.035 292.5,161.5 Z"/></g>
<g><path style="opacity:0.408" fill="#b6c1db" d="M 28.5,154.5 C 28.8023,158.79 28.1357,162.79 26.5,166.5C 26.7167,162.295 27.3833,158.295 28.5,154.5 Z"/></g>
<g><path style="opacity:0.925" fill="#6298e8" d="M 787.5,154.5 C 787.833,154.5 788.167,154.5 788.5,154.5C 788.813,157.247 788.48,159.914 787.5,162.5C 786.179,164.867 784.512,166.867 782.5,168.5C 784.566,163.969 786.232,159.303 787.5,154.5 Z"/></g>
<g><path style="opacity:0.875" fill="#83aeed" d="M 567.5,164.5 C 567.354,168.387 566.687,172.054 565.5,175.5C 565.335,172.482 565.502,169.482 566,166.5C 566.278,165.584 566.778,164.918 567.5,164.5 Z"/></g>
<g><path style="opacity:0.863" fill="#8b98c4" d="M 226.5,164.5 C 227.537,165.93 228.204,167.597 228.5,169.5C 226.744,168.448 226.077,166.781 226.5,164.5 Z"/></g>
<g><path style="opacity:1" fill="#6599eb" d="M 718.5,163.5 C 718.833,163.5 719.167,163.5 719.5,163.5C 720.907,167.312 722.574,170.978 724.5,174.5C 719.933,172.259 717.933,168.593 718.5,163.5 Z"/></g>
<g><path style="opacity:0.412" fill="#9daccf" d="M 386.5,160.5 C 389.098,166.196 391.098,172.196 392.5,178.5C 389.593,172.901 387.593,166.901 386.5,160.5 Z"/></g>
<g><path style="opacity:0.741" fill="#b2cef4" d="M 521.5,156.5 C 521.669,163.147 520.669,169.48 518.5,175.5C 518.864,168.936 519.864,162.603 521.5,156.5 Z"/></g>
<g><path style="opacity:0.463" fill="#9aaace" d="M 288.5,169.5 C 288.573,171.027 287.906,172.027 286.5,172.5C 286.427,170.973 287.094,169.973 288.5,169.5 Z"/></g>
<g><path style="opacity:0.286" fill="#a5b0d2" d="M 228.5,169.5 C 229.89,170.899 230.89,172.566 231.5,174.5C 229.241,173.656 228.241,171.989 228.5,169.5 Z"/></g>
<g><path style="opacity:0.816" fill="#90baef" d="M 854.5,166.5 C 854.412,171.536 853.912,176.536 853,181.5C 852.722,182.416 852.222,183.082 851.5,183.5C 852.049,177.626 853.049,171.959 854.5,166.5 Z"/></g>
<g><path style="opacity:0.325" fill="#adcef3" d="M 677.5,138.5 C 675.718,149.424 675.218,160.424 676,171.5C 677.416,180.657 680.25,189.324 684.5,197.5C 679.155,190.118 675.988,181.785 675,172.5C 674.333,164.833 674.333,157.167 675,149.5C 675.242,145.57 676.075,141.903 677.5,138.5 Z"/></g>
<g><path style="opacity:0.62" fill="#a1afd0" d="M 231.5,174.5 C 233.833,176.167 235.833,178.167 237.5,180.5C 234.5,179.5 232.5,177.5 231.5,174.5 Z"/></g>
<g><path style="opacity:0.8" fill="#6b80b6" d="M 286.5,172.5 C 285.833,175.167 284.167,176.833 281.5,177.5C 282.833,175.5 284.5,173.833 286.5,172.5 Z"/></g>
<g><path style="opacity:0.749" fill="#92baef" d="M 724.5,174.5 C 726.5,175.833 728.167,177.5 729.5,179.5C 726.833,178.833 725.167,177.167 724.5,174.5 Z"/></g>
<g><path style="opacity:0.153" fill="#bdd6f5" d="M 902.5,160.5 C 900.569,177.746 897.902,194.746 894.5,211.5C 896.215,194.218 898.882,177.218 902.5,160.5 Z"/></g>
<g><path style="opacity:0.996" fill="#5f95e8" d="M 780.5,171.5 C 778.323,174.398 776.656,177.232 775.5,180C 773.866,180.494 772.199,180.66 770.5,180.5C 773.808,177.529 777.141,174.529 780.5,171.5 Z"/></g>
<g><path style="opacity:0.667" fill="#8b9ec7" d="M 281.5,177.5 C 281.027,178.906 280.027,179.573 278.5,179.5C 278.973,178.094 279.973,177.427 281.5,177.5 Z"/></g>
<g><path style="opacity:0.784" fill="#97bbf0" d="M 729.5,179.5 C 732.669,180.917 735.669,182.583 738.5,184.5C 734.665,184.129 731.665,182.462 729.5,179.5 Z"/></g>
<g><path style="opacity:0.808" fill="#8092c0" d="M 239.5,181.5 C 240.71,181.932 241.71,182.599 242.5,183.5C 240.821,183.715 239.821,183.048 239.5,181.5 Z"/></g>
<g><path style="opacity:0.988" fill="#6073af" d="M 278.5,179.5 C 277.145,182.518 274.812,183.851 271.5,183.5C 273.566,181.801 275.9,180.468 278.5,179.5 Z"/></g>
<g><path style="opacity:0.478" fill="#9caccf" d="M 242.5,183.5 C 245.067,183.721 247.401,184.388 249.5,185.5C 246.772,185.829 244.438,185.163 242.5,183.5 Z"/></g>
<g><path style="opacity:0.729" fill="#90a1c8" d="M 270.5,183.5 C 268.898,185.074 266.898,185.741 264.5,185.5C 266.214,184.262 268.214,183.595 270.5,183.5 Z"/></g>
<g><path style="opacity:0.145" fill="#c1cbe0" d="M 460.5,186.5 C 460.573,188.027 459.906,189.027 458.5,189.5C 458.427,187.973 459.094,186.973 460.5,186.5 Z"/></g>
<g><path style="opacity:0.749" fill="#b2cef4" d="M 517.5,181.5 C 517.844,186.122 517.177,190.455 515.5,194.5C 515.438,189.924 516.105,185.591 517.5,181.5 Z"/></g>
<g><path style="opacity:0.153" fill="#c5cee2" d="M 189.5,194.5 C 190.89,195.899 191.89,197.566 192.5,199.5C 190.273,198.599 189.273,196.933 189.5,194.5 Z"/></g>
<g><path style="opacity:0.965" fill="#6979b2" d="M 397.5,194.5 C 399.287,196.474 400.287,198.974 400.5,202C 400.302,204.185 399.302,205.685 397.5,206.5C 397.751,204.83 398.418,203.33 399.5,202C 398.446,199.618 397.779,197.118 397.5,194.5 Z"/></g>
<g><path style="opacity:0.012" fill="#d2e3f7" d="M 684.5,197.5 C 685.906,197.973 686.573,198.973 686.5,200.5C 685.094,200.027 684.427,199.027 684.5,197.5 Z"/></g>
<g><path style="opacity:0.02" fill="#d4dae9" d="M 192.5,199.5 C 193.906,199.973 194.573,200.973 194.5,202.5C 193.094,202.027 192.427,201.027 192.5,199.5 Z"/></g>
<g><path style="opacity:0.459" fill="#accaf3" d="M 686.5,200.5 C 688.86,201.865 690.527,203.865 691.5,206.5C 689.11,205.109 687.443,203.109 686.5,200.5 Z"/></g>
<g><path style="opacity:0.431" fill="#b4beda" d="M 22.5,192.5 C 22.8023,196.79 22.1357,200.79 20.5,204.5C 20.7167,200.295 21.3833,196.295 22.5,192.5 Z"/></g>
<g><path style="opacity:0.702" fill="#a9caf3" d="M 849.5,197.5 C 849.884,201.489 849.217,205.155 847.5,208.5C 847.646,204.613 848.313,200.946 849.5,197.5 Z"/></g>
<g><path style="opacity:0.008" fill="#cdd5e6" d="M 196.5,204.5 C 198.833,206.167 200.833,208.167 202.5,210.5C 199.5,209.5 197.5,207.5 196.5,204.5 Z"/></g>
<g><path style="opacity:0.514" fill="#8b9cc6" d="M 397.5,206.5 C 397.573,208.027 396.906,209.027 395.5,209.5C 395.427,207.973 396.094,206.973 397.5,206.5 Z"/></g>
<g><path style="opacity:0.753" fill="#adcbf3" d="M 514.5,201.5 C 514.802,205.79 514.136,209.79 512.5,213.5C 512.539,209.267 513.205,205.267 514.5,201.5 Z"/></g>
<g><path style="opacity:0.714" fill="#a7c8f3" d="M 693.5,208.5 C 695.749,209.08 697.415,210.413 698.5,212.5C 696.251,211.92 694.585,210.587 693.5,208.5 Z"/></g>
<g><path style="opacity:0.886" fill="#78a7ec" d="M 560.5,207.5 C 560.557,212.531 559.557,217.198 557.5,221.5C 557.498,216.5 558.498,211.833 560.5,207.5 Z"/></g>
<g><path style="opacity:0.251" fill="#b3beda" d="M 202.5,210.5 C 205.089,211.419 207.089,213.086 208.5,215.5C 205.911,214.581 203.911,212.914 202.5,210.5 Z"/></g>
<g><path style="opacity:0.024" fill="#d9dfec" d="M 283.5,214.5 C 283.027,215.906 282.027,216.573 280.5,216.5C 280.973,215.094 281.973,214.427 283.5,214.5 Z"/></g>
<g><path style="opacity:0.216" fill="#adcbf3" d="M 698.5,212.5 C 700.749,213.08 702.415,214.413 703.5,216.5C 701.251,215.92 699.585,214.587 698.5,212.5 Z"/></g>
<g><path style="opacity:0.443" fill="#9aa9ce" d="M 392.5,214.5 C 392.573,216.027 391.906,217.027 390.5,217.5C 390.427,215.973 391.094,214.973 392.5,214.5 Z"/></g>
<g><path style="opacity:0.073" fill="#e3eefa" d="M 512.5,213.5 C 512.401,216.237 512.735,218.904 513.5,221.5C 511.974,220.508 511.307,219.008 511.5,217C 511.514,215.615 511.848,214.449 512.5,213.5 Z"/></g>
<g><path style="opacity:0.208" fill="#c7d0e3" d="M 210.5,216.5 C 212.027,216.427 213.027,217.094 213.5,218.5C 211.973,218.573 210.973,217.906 210.5,216.5 Z"/></g>
<g><path style="opacity:0.137" fill="#cfd7e7" d="M 280.5,216.5 C 279.089,218.539 277.089,219.539 274.5,219.5C 276.181,217.992 278.181,216.992 280.5,216.5 Z"/></g>
<g><path style="opacity:1" fill="#7ba4ec" d="M 703.5,216.5 C 707.131,216.141 709.798,217.475 711.5,220.5C 708.515,219.674 705.849,218.341 703.5,216.5 Z"/></g>
<g><path style="opacity:0.235" fill="#d2e5f8" d="M 776.5,214.5 C 776.56,213.957 776.893,213.624 777.5,213.5C 778.474,215.743 778.808,218.076 778.5,220.5C 777.833,218.5 777.167,216.5 776.5,214.5 Z"/></g>
<g><path style="opacity:0.49" fill="#9fafd1" d="M 285.5,220.5 C 284.833,218.5 284.167,216.5 283.5,214.5C 283.783,213.711 284.283,213.044 285,212.5C 285.497,215.146 285.664,217.813 285.5,220.5 Z"/></g>
<g><path style="opacity:0.145" fill="#c7ddf7" d="M 771.5,217.5 C 770.713,219.104 769.38,219.771 767.5,219.5C 768.514,218.326 769.847,217.66 771.5,217.5 Z"/></g>
<g><path style="opacity:0.745" fill="#8ab7ef" d="M 847.5,211.5 C 847.01,215.487 847.676,219.154 849.5,222.5C 848.504,222.586 847.671,222.252 847,221.5C 846.192,217.973 846.359,214.64 847.5,211.5 Z"/></g>
<g><path style="opacity:0.114" fill="#cfd7e7" d="M 213.5,218.5 C 215.553,218.402 217.22,219.069 218.5,220.5C 216.447,220.598 214.78,219.931 213.5,218.5 Z"/></g>
<g><path style="opacity:0.247" fill="#c6cfe3" d="M 274.5,219.5 C 269.34,222.737 263.674,224.903 257.5,226C 249.655,226.822 241.989,226.656 234.5,225.5C 241.841,225.666 249.174,225.5 256.5,225C 262.608,223.442 268.608,221.608 274.5,219.5 Z"/></g>
<g><path style="opacity:0.937" fill="#8994c2" d="M 218.5,220.5 C 220.698,220.12 222.365,220.787 223.5,222.5C 221.447,222.598 219.78,221.931 218.5,220.5 Z"/></g>
<g><path style="opacity:0.008" fill="#cad3e6" d="M 19.5,220.5 C 20.5,220.833 21.1667,221.5 21.5,222.5C 20.1667,222.5 19.5,221.833 19.5,220.5 Z"/></g>
<g><path style="opacity:0.031" fill="#c6cfe2" d="M 285.5,220.5 C 286.5,220.833 287.167,221.5 287.5,222.5C 286.167,222.5 285.5,221.833 285.5,220.5 Z"/></g>
<g><path style="opacity:0.965" fill="#6c7bb4" d="M 390.5,217.5 C 390.408,219.848 389.408,221.514 387.5,222.5C 387.75,220.326 388.75,218.659 390.5,217.5 Z"/></g>
<g><path style="opacity:0.157" fill="#c0d9f7" d="M 765.5,220.5 C 764.22,221.931 762.553,222.598 760.5,222.5C 761.78,221.069 763.447,220.402 765.5,220.5 Z"/></g>
<g><path style="opacity:0.361" fill="#c4cde2" d="M 65.5,219.5 C 64.8397,222.649 62.8397,224.149 59.5,224C 47.5,224.667 35.5,224.667 23.5,224C 22.5842,223.722 21.9175,223.222 21.5,222.5C 35.1707,222.667 48.8374,222.5 62.5,222C 63.3734,220.955 64.3734,220.122 65.5,219.5 Z"/></g>
<g><path style="opacity:0.361" fill="#abcef4" d="M 513.5,221.5 C 528.167,222.833 542.833,222.833 557.5,221.5C 557.389,222.117 557.056,222.617 556.5,223C 542.5,223.667 528.5,223.667 514.5,223C 513.944,222.617 513.611,222.117 513.5,221.5 Z"/></g>
<g><path style="opacity:0.361" fill="#aacef3" d="M 821.5,221.5 C 821.389,222.117 821.056,222.617 820.5,223C 806.994,223.827 793.66,223.66 780.5,222.5C 794.216,222.798 807.882,222.465 821.5,221.5 Z"/></g>
<g><path style="opacity:0.443" fill="#a9cbf3" d="M 892.5,220.5 C 892.423,221.75 891.756,222.583 890.5,223C 882.845,223.679 875.178,224.179 867.5,224.5C 861.274,224.564 855.274,223.897 849.5,222.5C 861.838,222.667 874.171,222.5 886.5,222C 888.586,221.685 890.586,221.185 892.5,220.5 Z"/></g>
<g><path style="opacity:0.051" fill="#dfe4ee" d="M 223.5,222.5 C 225.786,222.595 227.786,223.262 229.5,224.5C 227.102,224.741 225.102,224.074 223.5,222.5 Z"/></g>
<g><path style="opacity:0.059" fill="#cde0f7" d="M 760.5,222.5 C 757.237,224.568 753.57,225.568 749.5,225.5C 752.888,223.882 756.554,222.882 760.5,222.5 Z"/></g>
<g><path style="opacity:0.355" fill="#bbd5f5" d="M 716.5,222.5 C 727.315,225.112 738.315,226.112 749.5,225.5C 742.345,226.655 735.012,226.822 727.5,226C 723.573,225.276 719.906,224.109 716.5,222.5 Z"/></g>
<g><path style="opacity:0.627" fill="#788bbd" d="M 386.5,224.5 C 386.573,226.027 385.906,227.027 384.5,227.5C 384.427,225.973 385.094,224.973 386.5,224.5 Z"/></g>
<g><path style="opacity:0.486" fill="#92a2c9" d="M 384.5,227.5 C 384.573,229.027 383.906,230.027 382.5,230.5C 382.427,228.973 383.094,227.973 384.5,227.5 Z"/></g>
<g><path style="opacity:0.094" fill="#ced6e7" d="M 434.5,229.5 C 434.573,231.027 433.906,232.027 432.5,232.5C 432.427,230.973 433.094,229.973 434.5,229.5 Z"/></g>
<g><path style="opacity:0.969" fill="#6979b2" d="M 382.5,230.5 C 382.408,232.848 381.408,234.514 379.5,235.5C 379.75,233.326 380.75,231.659 382.5,230.5 Z"/></g>
<g><path style="opacity:0.984" fill="#5d6eac" d="M 379.5,235.5 C 379.408,237.848 378.408,239.514 376.5,240.5C 376.75,238.326 377.75,236.659 379.5,235.5 Z"/></g>
<g><path style="opacity:0.541" fill="#899ac5" d="M 376.5,240.5 C 376.573,242.027 375.906,243.027 374.5,243.5C 374.427,241.973 375.094,240.973 376.5,240.5 Z"/></g>
<g><path style="opacity:0.973" fill="#6575b0" d="M 374.5,243.5 C 374.408,245.848 373.408,247.514 371.5,248.5C 371.75,246.326 372.75,244.659 374.5,243.5 Z"/></g>
<g><path style="opacity:0.11" fill="#c8d1e4" d="M 423.5,247.5 C 423.573,249.027 422.906,250.027 421.5,250.5C 421.427,248.973 422.094,247.973 423.5,247.5 Z"/></g>
<g><path style="opacity:0.094" fill="#cbd2e5" d="M 420.5,252.5 C 420.573,254.027 419.906,255.027 418.5,255.5C 418.427,253.973 419.094,252.973 420.5,252.5 Z"/></g>
<g><path style="opacity:0.008" fill="#cfd5e7" d="M 417.5,257.5 C 417.573,259.027 416.906,260.027 415.5,260.5C 415.427,258.973 416.094,257.973 417.5,257.5 Z"/></g>
<g><path style="opacity:0.973" fill="#5d6eac" d="M 368.5,253.5 C 367.701,256.43 367.368,259.43 367.5,262.5C 366.188,261.855 365.188,260.855 364.5,259.5C 365.361,257.089 366.694,255.089 368.5,253.5 Z"/></g>
</svg>
