<?xml version="1.0" encoding="UTF-8"?>
<!DOCTYPE svg PUBLIC "-//W3C//DTD SVG 1.1//EN" "http://www.w3.org/Graphics/SVG/1.1/DTD/svg11.dtd">
<svg xmlns="http://www.w3.org/2000/svg" version="1.1" width="512px" height="512px" style="shape-rendering:geometricPrecision; text-rendering:geometricPrecision; image-rendering:optimizeQuality; fill-rule:evenodd; clip-rule:evenodd" xmlns:xlink="http://www.w3.org/1999/xlink">
<g><path style="opacity:0.965" fill="#ffffff" d="M 236.5,-0.5 C 249.167,-0.5 261.833,-0.5 274.5,-0.5C 329.931,5.13226 376.431,28.4656 414,69.5C 443.816,104.738 454.983,145.405 447.5,191.5C 466.836,191.333 486.17,191.5 505.5,192C 508.023,193.36 510.023,195.193 511.5,197.5C 511.5,257.5 511.5,317.5 511.5,377.5C 510.023,379.807 508.023,381.64 505.5,383C 486.17,383.5 466.836,383.667 447.5,383.5C 447.667,401.503 447.5,419.503 447,437.5C 440.754,466.746 422.92,484.246 393.5,490C 383.172,490.5 372.839,490.666 362.5,490.5C 362.666,495.179 362.499,499.845 362,504.5C 361.033,507.621 359.2,509.954 356.5,511.5C 323.5,511.5 290.5,511.5 257.5,511.5C 234.479,501.285 228.312,484.618 239,461.5C 243.298,454.435 249.465,449.935 257.5,448C 290.5,447.333 323.5,447.333 356.5,448C 359.381,449.251 361.214,451.417 362,454.5C 362.499,459.155 362.666,463.821 362.5,468.5C 371.839,468.666 381.173,468.5 390.5,468C 408.451,464.05 419.951,453.216 425,435.5C 425.667,337.167 425.667,238.833 425,140.5C 419.282,113.892 406.449,91.3924 386.5,73C 334.101,26.8171 273.768,11.8171 205.5,28C 159.695,40.8454 123.861,67.0121 98,106.5C 92.0133,117.127 88.0133,128.46 86,140.5C 85.9915,219.89 85.3248,299.224 84,378.5C 82.4571,380.378 80.6238,381.878 78.5,383C 54.1667,383.667 29.8333,383.667 5.5,383C 2.97739,381.64 0.977392,379.807 -0.5,377.5C -0.5,317.5 -0.5,257.5 -0.5,197.5C 0.977392,195.193 2.97739,193.36 5.5,192C 24.8305,191.5 44.1638,191.333 63.5,191.5C 56.0154,145.413 67.1821,104.746 97,69.5C 134.569,28.4656 181.069,5.13226 236.5,-0.5 Z M 21.5,213.5 C 35.5,213.5 49.5,213.5 63.5,213.5C 63.5,262.833 63.5,312.167 63.5,361.5C 49.5,361.5 35.5,361.5 21.5,361.5C 21.5,312.167 21.5,262.833 21.5,213.5 Z M 447.5,213.5 C 461.5,213.5 475.5,213.5 489.5,213.5C 489.5,262.833 489.5,312.167 489.5,361.5C 475.5,361.5 461.5,361.5 447.5,361.5C 447.5,312.167 447.5,262.833 447.5,213.5 Z M 261.5,469.5 C 287.833,469.5 314.167,469.5 340.5,469.5C 340.5,476.167 340.5,482.833 340.5,489.5C 314.165,489.667 287.831,489.5 261.5,489C 253.813,482.266 253.813,475.766 261.5,469.5 Z"/></g>
<g><path style="opacity:0.958" fill="#ffffff" d="M 242.5,43.5 C 313.203,41.4482 363.703,72.1149 394,135.5C 400.348,151.225 404.014,167.558 405,184.5C 413.15,250.569 398.15,310.569 360,364.5C 342.64,387.914 320.807,405.748 294.5,418C 256.213,431.952 220.88,426.618 188.5,402C 154.612,373.432 130.779,337.932 117,295.5C 106.129,259.261 102.463,222.261 106,184.5C 111.176,126.71 139.343,84.5432 190.5,58C 207.178,50.3339 224.512,45.5006 242.5,43.5 Z M 244.5,65.5 C 301.048,63.6783 342.882,87.345 370,136.5C 377.782,152.963 382.116,170.296 383,188.5C 390.945,254.434 373.945,312.767 332,363.5C 277.235,418.864 224.902,416.531 175,356.5C 127.374,291.747 115.04,220.747 138,143.5C 159.329,98.0913 194.829,72.0913 244.5,65.5 Z"/></g>
</svg>
